<svg height="512" node-id="1" sillyvg="true" template-height="512" template-width="512" version="1.1" viewBox="0 0 512 512" width="512" xmlns="http://www.w3.org/2000/svg" xmlns:xlink="http://www.w3.org/1999/xlink"><defs node-id="35"></defs><path d="M 0.00 0.00 L 512.00 0.00 L 512.00 512.00 L 0.00 512.00 Z" fill="#dfd6fe" fill-rule="evenodd" id="矩形" node-id="5" stroke="none" target-height="512" target-width="512" target-x="0" target-y="0"/><g transform="translate(0, -75)"><g node-id="37"><g node-id="40"><g node-id="44"><path d="M 362.13 343.56 L 147.13 343.56 L 147.13 274.90 C 147.13 220.50 191.23 176.40 245.63 176.40 L 263.63 176.40 C 318.03 176.40 362.13 220.50 362.13 274.90 L 362.13 343.56 Z" fill="#0a0a0a" fill-rule="evenodd" group-id="1,4,8" id="Fill-1" node-id="10" stroke="none" target-height="167.15558" target-width="214.99559" target-x="147.13023" target-y="176.4002"/><path d="M 122.00 512.16 L 390.06 512.16 L 390.06 176.40 L 122.00 176.40 Z" fill="none" group-id="1,4,8" id="Clip-4" node-id="11" stroke="none" target-height="335.75598" target-width="268.064" target-x="122" target-y="176.40001"/><path d="M 230.78 447.95 L 278.80 447.95 L 278.80 384.83 L 230.78 384.83 Z" fill="#ffbbba" fill-rule="evenodd" group-id="1,4,8" id="Fill-3" node-id="12" stroke="none" target-height="63.115997" target-width="48.015198" target-x="230.7804" target-y="384.8316"/><path d="M 230.78 416.62 C 239.61 418.74 247.61 419.80 254.79 419.80 C 261.97 419.80 269.97 418.74 278.80 416.62 L 278.80 383.62 L 230.78 383.62 L 230.78 416.62 Z" fill="#fb918d" fill-rule="evenodd" group-id="1,4,8" id="Fill-3" node-id="13" stroke="none" target-height="36.18164" target-width="48.015198" target-x="230.7804" target-y="383.622"/><path d="M 172.26 339.60 C 172.26 355.83 161.01 368.99 147.13 368.99 C 133.25 368.99 122.00 355.83 122.00 339.60 C 122.00 323.37 133.25 310.22 147.13 310.22 C 161.01 310.22 172.26 323.37 172.26 339.60" fill="#ffbbba" fill-rule="evenodd" group-id="1,4,8" id="Fill-5" node-id="14" stroke="none" target-height="58.76999" target-width="50.259605" target-x="122.00024" target-y="310.2179"/><path d="M 390.06 339.60 C 390.06 355.83 378.81 368.99 364.93 368.99 C 351.06 368.99 339.80 355.83 339.80 339.60 C 339.80 323.37 351.06 310.22 364.93 310.22 C 378.81 310.22 390.06 323.37 390.06 339.60" fill="#ffbbba" fill-rule="evenodd" group-id="1,4,8" id="Fill-7" node-id="15" stroke="none" target-height="58.76999" target-width="50.25998" target-x="339.80414" target-y="310.2179"/><path d="M 255.86 411.90 C 230.37 411.90 158.91 387.64 158.91 334.10 C 158.91 280.56 161.02 194.40 255.86 194.40 C 350.69 194.40 352.80 280.56 352.80 334.10 C 352.80 387.64 281.34 411.90 255.86 411.90 Z" fill="#ffbbba" fill-rule="evenodd" group-id="1,4,8" id="Fill-9" node-id="16" stroke="none" target-height="217.49998" target-width="193.88919" target-x="158.91245" target-y="194.39912"/><path d="M 255.86 404.90 C 230.37 404.90 158.91 380.64 158.91 327.10 C 158.91 273.56 161.02 187.40 255.86 187.40 C 350.69 187.40 352.80 273.56 352.80 327.10 C 352.80 380.64 281.34 404.90 255.86 404.90 Z" fill="#ffd5d6" fill-rule="evenodd" group-id="1,4,8" id="Fill-9" node-id="17" stroke="none" target-height="217.50002" target-width="193.88919" target-x="158.91245" target-y="187.39912"/><path d="M 331.63 511.56 L 175.95 511.56 C 175.95 470.91 208.90 437.96 249.55 437.96 L 258.02 437.96 C 298.67 437.96 331.63 470.91 331.63 511.56" fill="#ffbbba" fill-rule="evenodd" group-id="1,4,8" id="Fill-15" node-id="18" stroke="none" target-height="73.60358" target-width="155.6748" target-x="175.95068" target-y="437.95966"/><path d="M 290.11 444.96 C 284.49 458.24 271.35 467.56 256.01 467.56 C 240.03 467.56 226.60 457.44 221.40 443.25 C 194.48 454.37 175.72 480.96 175.72 511.90 L 175.72 512.16 L 332.12 512.16 L 332.12 511.90 C 332.12 482.44 314.99 456.92 290.11 444.96" fill="#1f1f1f" fill-rule="evenodd" group-id="1,4,8" id="Fill-16" node-id="19" stroke="none" target-height="68.90277" target-width="156.4" target-x="175.71576" target-y="443.253"/></g></g></g><g node-id="38"><path d="M 263.28 335.38 C 263.28 339.38 247.99 339.38 247.99 335.38 C 247.99 330.98 251.42 327.74 255.64 327.74 C 259.86 327.74 263.28 330.98 263.28 335.38" fill="#e8b39f" fill-rule="evenodd" group-id="2" id="Fill-12" node-id="22" stroke="none" target-height="11.645599" target-width="15.291595" target-x="247.99182" target-y="327.7366"/><path d="M 209.23 277.59 C 209.74 275.44 211.89 274.11 214.04 274.61 L 231.54 278.64 C 233.69 279.15 235.03 281.30 234.52 283.45 C 234.02 285.60 231.87 286.94 229.72 286.43 L 212.21 282.40 C 210.06 281.89 208.73 279.74 209.23 277.59 Z" fill="#502b31" fill-rule="nonzero" group-id="2" id="Stroke-15" node-id="23" stroke="none" target-height="12.831818" target-width="26.298233" target-x="208.7283" target-y="274.1052"/><path d="M 302.73 277.55 C 303.25 279.70 301.94 281.86 299.79 282.39 L 296.70 283.12 L 284.15 285.99 L 282.28 286.43 C 280.13 286.94 277.97 285.62 277.45 283.47 C 276.94 281.32 278.26 279.16 280.41 278.65 L 283.18 278.00 L 297.29 274.76 L 297.89 274.62 C 300.03 274.09 302.20 275.41 302.73 277.55 Z" fill="#502b31" fill-rule="nonzero" group-id="2" id="Stroke-16" node-id="24" stroke="none" target-height="12.850311" target-width="26.316711" target-x="276.93607" target-y="274.09335"/><g node-id="41"><path d="M 266.80 358.88 C 267.73 358.27 268.97 358.54 269.57 359.46 C 270.17 360.39 269.91 361.63 268.98 362.23 C 260.38 367.82 250.56 367.71 242.04 362.88 C 241.08 362.33 240.75 361.11 241.29 360.15 C 241.84 359.19 243.06 358.85 244.02 359.40 C 251.29 363.53 259.51 363.62 266.80 358.88 Z" fill="#d06946" fill-rule="nonzero" group-id="2,5" id="Stroke-28" node-id="25" stroke="none" target-height="9.549225" target-width="29.42514" target-x="240.7453" target-y="358.27432"/></g><g node-id="42"><path d="M 224.14 310.78 C 225.06 310.18 226.30 310.44 226.90 311.37 C 227.51 312.29 227.24 313.53 226.32 314.13 C 217.72 319.73 207.90 319.62 199.38 314.78 C 198.42 314.24 198.08 313.02 198.63 312.06 C 199.17 311.10 200.39 310.76 201.35 311.30 C 208.63 315.43 216.85 315.52 224.14 310.78 Z" fill="#000000" fill-rule="nonzero" group-id="2,6" id="Stroke-28备份" node-id="26" stroke="none" target-height="9.549225" target-width="29.42514" target-x="198.08134" target-y="310.1789"/></g><path d="M 307.14 310.78 C 308.06 310.18 309.30 310.44 309.90 311.37 C 310.51 312.29 310.24 313.53 309.32 314.13 C 300.72 319.73 290.90 319.62 282.38 314.78 C 281.42 314.24 281.08 313.02 281.63 312.06 C 282.17 311.10 283.39 310.76 284.35 311.30 C 291.63 315.43 299.85 315.52 307.14 310.78 Z" fill="#000000" fill-rule="nonzero" group-id="2,7" id="Stroke-28备份-2" node-id="27" stroke="none" target-height="9.549225" target-width="29.42517" target-x="281.08133" target-y="310.1789"/></g><g node-id="39"><path d="M 373.07 282.16 C 354.21 282.16 338.88 266.82 338.88 247.97 C 338.88 246.11 340.38 244.61 342.24 244.61 L 383.80 244.61 C 402.66 244.61 417.99 259.95 417.99 278.80 C 417.99 280.66 416.49 282.16 414.63 282.16 L 373.07 282.16 Z" fill="#f5c874" fill-rule="evenodd" group-id="3" id="Fill-633" node-id="29" stroke="none" target-height="37.55304" target-width="79.11792" target-x="338.8761" target-y="244.60742"/><path d="M 342.24 242.17 C 340.38 242.17 338.88 240.66 338.88 238.81 C 338.88 219.95 354.21 204.62 373.07 204.62 L 414.63 204.62 C 416.49 204.62 417.99 206.12 417.99 207.98 C 417.99 226.83 402.66 242.17 383.80 242.17 L 342.24 242.17 Z" fill="#f5c874" fill-rule="evenodd" group-id="3" id="Fill-635" node-id="30" stroke="none" target-height="37.551346" target-width="79.11792" target-x="338.8761" target-y="204.61552"/><path d="M 149.36 264.60 C 147.51 264.60 146.00 263.10 146.00 261.24 C 146.00 245.46 149.27 230.21 155.72 215.91 C 173.54 176.48 212.99 151.00 256.24 151.00 C 264.66 151.00 273.03 151.95 281.12 153.83 C 315.94 161.85 344.80 186.44 358.34 219.60 C 363.74 232.82 366.48 246.83 366.48 261.24 C 366.48 263.10 364.98 264.60 363.12 264.60 L 149.36 264.60 Z" fill="#ea7f8f" fill-rule="evenodd" group-id="3" id="Fill-658" node-id="31" stroke="none" target-height="113.60159" target-width="220.48322" target-x="146" target-y="151"/><path d="M 324.01 235.15 C 294.54 235.15 270.56 211.17 270.56 181.69 C 270.56 172.47 272.94 163.39 277.44 155.44 C 278.05 154.37 279.18 153.74 280.37 153.74 C 280.62 153.74 280.87 153.77 281.12 153.82 C 315.94 161.85 344.80 186.44 358.34 219.60 C 358.90 220.98 358.49 222.57 357.32 223.50 C 347.91 231.01 336.08 235.15 324.01 235.15" fill="#f5c874" fill-rule="evenodd" group-id="3" id="Fill-660" node-id="32" stroke="none" target-height="81.412796" target-width="88.34616" target-x="270.5552" target-y="153.7389"/><path d="M 149.36 264.60 C 147.51 264.60 146.00 263.10 146.00 261.24 C 146.00 245.46 149.27 230.21 155.72 215.91 C 156.11 215.06 156.83 214.40 157.72 214.11 C 158.07 213.99 158.43 213.93 158.78 213.93 C 159.34 213.93 159.90 214.07 160.40 214.34 C 177.54 223.73 188.18 241.70 188.18 261.24 C 188.18 263.10 186.68 264.60 184.82 264.60 L 149.36 264.60 Z" fill="#f5c874" fill-rule="evenodd" group-id="3" id="Fill-666" node-id="33" stroke="none" target-height="50.668793" target-width="42.1848" target-x="146" target-y="213.9328"/></g></g></svg>