<svg height="512" node-id="1" sillyvg="true" template-height="512" template-width="512" version="1.1" viewBox="0 0 512 512" width="512" xmlns="http://www.w3.org/2000/svg" xmlns:xlink="http://www.w3.org/1999/xlink"><defs node-id="45"><mask height="75.7392" id="mask-2" maskUnits="userSpaceOnUse" node-id="13" width="57.618225" x="225.97888" y="378.52002"><path d="M 122.00 512.16 L 390.06 512.16 L 390.06 176.40 L 122.00 176.40 Z" fill="#ffffff" fill-rule="evenodd" node-id="50" stroke="none" target-height="335.75598" target-width="268.064" target-x="122" target-y="176.40001"/></mask><mask height="43.41797" id="mask1" maskUnits="userSpaceOnUse" node-id="54" width="57.618225" x="225.97888" y="380.00385"><path d="M 122.00 512.16 L 390.06 512.16 L 390.06 176.40 L 122.00 176.40 Z" fill="#ffffff" fill-rule="evenodd" node-id="58" stroke="none" target-height="335.75598" target-width="268.064" target-x="122" target-y="176.40001"/></mask><mask height="70.52402" id="mask2" maskUnits="userSpaceOnUse" node-id="62" width="60.311516" x="116.97428" y="304.34088"><path d="M 122.00 512.16 L 390.06 512.16 L 390.06 176.40 L 122.00 176.40 Z" fill="#ffffff" fill-rule="evenodd" node-id="66" stroke="none" target-height="335.75598" target-width="268.064" target-x="122" target-y="176.40001"/></mask><mask height="70.52402" id="mask3" maskUnits="userSpaceOnUse" node-id="70" width="60.31198" x="334.77814" y="304.34088"><path d="M 122.00 512.16 L 390.06 512.16 L 390.06 176.40 L 122.00 176.40 Z" fill="#ffffff" fill-rule="evenodd" node-id="74" stroke="none" target-height="335.75598" target-width="268.064" target-x="122" target-y="176.40001"/></mask><mask height="261" id="mask4" maskUnits="userSpaceOnUse" node-id="78" width="232.66702" x="139.52353" y="172.64912"><path d="M 122.00 512.16 L 390.06 512.16 L 390.06 176.40 L 122.00 176.40 Z" fill="#ffffff" fill-rule="evenodd" node-id="82" stroke="none" target-height="335.75598" target-width="268.064" target-x="122" target-y="176.40001"/></mask><mask height="261" id="mask5" maskUnits="userSpaceOnUse" node-id="86" width="232.66702" x="139.52353" y="165.64912"><path d="M 122.00 512.16 L 390.06 512.16 L 390.06 176.40 L 122.00 176.40 Z" fill="#ffffff" fill-rule="evenodd" node-id="90" stroke="none" target-height="335.75598" target-width="268.064" target-x="122" target-y="176.40001"/></mask><mask height="16.169281" id="mask6" maskUnits="userSpaceOnUse" node-id="94" width="27.537598" x="210.97324" y="303.46173"><path d="M 122.00 512.16 L 390.06 512.16 L 390.06 176.40 L 122.00 176.40 Z" fill="#ffffff" fill-rule="evenodd" node-id="98" stroke="none" target-height="335.75598" target-width="268.064" target-x="122" target-y="176.40001"/></mask><mask height="16.169281" id="mask7" maskUnits="userSpaceOnUse" node-id="102" width="27.537598" x="273.20294" y="303.46173"><path d="M 122.00 512.16 L 390.06 512.16 L 390.06 176.40 L 122.00 176.40 Z" fill="#ffffff" fill-rule="evenodd" node-id="106" stroke="none" target-height="335.75598" target-width="268.064" target-x="122" target-y="176.40001"/></mask><mask height="12.774719" id="mask8" maskUnits="userSpaceOnUse" node-id="110" width="18.349915" x="246.46252" y="326.64563"><path d="M 122.00 512.16 L 390.06 512.16 L 390.06 176.40 L 122.00 176.40 Z" fill="#ffffff" fill-rule="evenodd" node-id="114" stroke="none" target-height="335.75598" target-width="268.064" target-x="122" target-y="176.40001"/></mask><mask height="88.32428" id="mask9" maskUnits="userSpaceOnUse" node-id="118" width="186.80975" x="160.38321" y="430.5993"><path d="M 122.00 512.16 L 390.06 512.16 L 390.06 176.40 L 122.00 176.40 Z" fill="#ffffff" fill-rule="evenodd" node-id="122" stroke="none" target-height="335.75598" target-width="268.064" target-x="122" target-y="176.40001"/></mask><mask height="82.68338" id="mask10" maskUnits="userSpaceOnUse" node-id="126" width="187.67998" x="160.07576" y="436.3627"><path d="M 122.00 512.16 L 390.06 512.16 L 390.06 176.40 L 122.00 176.40 Z" fill="#ffffff" fill-rule="evenodd" node-id="130" stroke="none" target-height="335.75598" target-width="268.064" target-x="122" target-y="176.40001"/></mask></defs><path d="M 0.00 0.00 L 512.00 0.00 L 512.00 512.00 L 0.00 512.00 Z" fill="#ecc6df" fill-rule="evenodd" id="矩形" node-id="7" stroke="none" target-height="512" target-width="512" target-x="0" target-y="0"/><g transform="translate(0, -75)"><g node-id="132"><g node-id="135"><g node-id="137"><path d="M 362.13 343.56 L 147.13 343.56 L 147.13 274.90 C 147.13 220.50 191.23 176.40 245.63 176.40 L 263.63 176.40 C 318.03 176.40 362.13 220.50 362.13 274.90 L 362.13 343.56 Z" fill="#ee6e25" fill-rule="evenodd" group-id="1,4,6" id="Fill-1" node-id="12" stroke="none" target-height="167.15558" target-width="214.99559" target-x="147.13023" target-y="176.4002"/><g node-id="140"><path d="M 230.78 447.95 L 278.80 447.95 L 278.80 384.83 L 230.78 384.83 Z" fill="#ffbbba" fill-rule="evenodd" group-id="1,4,6,9" id="Fill-3" node-id="16" stroke="none" target-height="63.115997" target-width="48.015198" target-x="230.7804" target-y="384.8316"/></g><g node-id="141"><path d="M 230.78 416.62 C 239.61 418.74 247.61 419.80 254.79 419.80 C 261.97 419.80 269.97 418.74 278.80 416.62 L 278.80 383.62 L 230.78 383.62 L 230.78 416.62 Z" fill="#fb918d" fill-rule="evenodd" group-id="1,4,6,10" id="Fill-3" node-id="17" stroke="none" target-height="36.18164" target-width="48.015198" target-x="230.7804" target-y="383.622"/></g><g node-id="142"><path d="M 172.26 339.60 C 172.26 355.83 161.01 368.99 147.13 368.99 C 133.25 368.99 122.00 355.83 122.00 339.60 C 122.00 323.37 133.25 310.22 147.13 310.22 C 161.01 310.22 172.26 323.37 172.26 339.60" fill="#ffbbba" fill-rule="evenodd" group-id="1,4,6,11" id="Fill-5" node-id="18" stroke="none" target-height="58.76999" target-width="50.259605" target-x="122.00024" target-y="310.2179"/></g><g node-id="143"><path d="M 390.06 339.60 C 390.06 355.83 378.81 368.99 364.93 368.99 C 351.06 368.99 339.80 355.83 339.80 339.60 C 339.80 323.37 351.06 310.22 364.93 310.22 C 378.81 310.22 390.06 323.37 390.06 339.60" fill="#ffbbba" fill-rule="evenodd" group-id="1,4,6,12" id="Fill-7" node-id="19" stroke="none" target-height="58.76999" target-width="50.25998" target-x="339.80414" target-y="310.2179"/></g><g node-id="144"><path d="M 255.86 411.90 C 230.37 411.90 158.91 387.64 158.91 334.10 C 158.91 280.56 161.02 194.40 255.86 194.40 C 350.69 194.40 352.80 280.56 352.80 334.10 C 352.80 387.64 281.34 411.90 255.86 411.90 Z" fill="#ffbbba" fill-rule="evenodd" group-id="1,4,6,13" id="Fill-9" node-id="20" stroke="none" target-height="217.49998" target-width="193.88919" target-x="158.91245" target-y="194.39912"/></g><g node-id="145"><path d="M 255.86 404.90 C 230.37 404.90 158.91 380.64 158.91 327.10 C 158.91 273.56 161.02 187.40 255.86 187.40 C 350.69 187.40 352.80 273.56 352.80 327.10 C 352.80 380.64 281.34 404.90 255.86 404.90 Z" fill="#ffd5d6" fill-rule="evenodd" group-id="1,4,6,14" id="Fill-9" node-id="21" stroke="none" target-height="217.50002" target-width="193.88919" target-x="158.91245" target-y="187.39912"/></g><g node-id="146"><path d="M 224.74 304.81 C 231.08 304.81 236.22 309.95 236.22 316.28 C 236.22 317.39 235.32 318.28 234.22 318.28 C 233.11 318.28 232.22 317.39 232.22 316.28 C 232.22 312.16 228.87 308.81 224.74 308.81 C 220.61 308.81 217.27 312.16 217.27 316.28 C 217.27 317.39 216.37 318.28 215.27 318.28 C 214.16 318.28 213.27 317.39 213.27 316.28 C 213.27 309.95 218.41 304.81 224.74 304.81 Z" fill="#000000" fill-rule="nonzero" group-id="1,4,6,15" id="Stroke-12" node-id="22" stroke="none" target-height="13.474426" target-width="22.947998" target-x="213.26804" target-y="304.80914"/></g><g node-id="147"><path d="M 286.97 304.81 C 293.31 304.81 298.45 309.95 298.45 316.28 C 298.45 317.39 297.55 318.28 296.45 318.28 C 295.34 318.28 294.45 317.39 294.45 316.28 C 294.45 312.16 291.10 308.81 286.97 308.81 C 282.84 308.81 279.50 312.16 279.50 316.28 C 279.50 317.39 278.60 318.28 277.50 318.28 C 276.39 318.28 275.50 317.39 275.50 316.28 C 275.50 309.95 280.63 304.81 286.97 304.81 Z" fill="#000000" fill-rule="nonzero" group-id="1,4,6,16" id="Stroke-13" node-id="23" stroke="none" target-height="13.474426" target-width="22.947998" target-x="275.49774" target-y="304.80914"/></g><g node-id="148"><path d="M 263.28 335.36 C 263.28 339.36 247.99 339.36 247.99 335.36 C 247.99 330.96 251.41 327.71 255.64 327.71 C 259.86 327.71 263.28 330.96 263.28 335.36" fill="#e8b39f" fill-rule="evenodd" group-id="1,4,6,17" id="Fill-14" node-id="24" stroke="none" target-height="11.645599" target-width="15.291595" target-x="247.99167" target-y="327.7102"/></g><g node-id="149"><path d="M 331.63 511.56 L 175.95 511.56 C 175.95 470.91 208.90 437.96 249.55 437.96 L 258.02 437.96 C 298.67 437.96 331.63 470.91 331.63 511.56" fill="#ffbbba" fill-rule="evenodd" group-id="1,4,6,18" id="Fill-15" node-id="25" stroke="none" target-height="73.60358" target-width="155.6748" target-x="175.95068" target-y="437.95966"/></g><path d="M 290.11 444.96 C 284.49 458.24 271.35 467.56 256.01 467.56 C 240.03 467.56 226.60 457.44 221.40 443.25 C 194.48 454.37 175.72 480.96 175.72 511.90 L 175.72 512.16 L 332.12 512.16 L 332.12 511.90 C 332.12 482.44 314.99 456.92 290.11 444.96" fill="#8898ed" fill-rule="evenodd" group-id="1,4,6,19" id="Fill-16" node-id="26" stroke="none" target-height="68.90277" target-width="156.4" target-x="175.71576" target-y="443.253"/></g><g node-id="138"><path d="M 209.23 277.56 C 209.74 275.41 211.89 274.08 214.04 274.58 L 231.54 278.62 C 233.69 279.12 235.03 281.27 234.52 283.42 C 234.02 285.58 231.87 286.91 229.72 286.41 L 212.87 282.53 L 212.21 282.37 C 210.06 281.87 208.73 279.71 209.23 277.56 Z" fill="#614536" fill-rule="nonzero" group-id="1,4,7" id="Stroke-20" node-id="28" stroke="none" target-height="12.831818" target-width="26.298233" target-x="208.7285" target-y="274.0788"/><path d="M 302.73 277.53 C 303.25 279.67 301.94 281.84 299.79 282.36 L 298.49 282.67 L 283.52 286.11 L 282.27 286.40 C 280.13 286.92 277.97 285.59 277.45 283.45 C 276.94 281.30 278.26 279.14 280.41 278.62 L 285.98 277.33 L 297.11 274.78 L 297.89 274.59 C 300.03 274.07 302.20 275.38 302.73 277.53 Z" fill="#614536" fill-rule="nonzero" group-id="1,4,7" id="Stroke-22" node-id="29" stroke="none" target-height="12.850311" target-width="26.316711" target-x="276.9359" target-y="274.06696"/></g></g></g><g node-id="133"><path d="M 232.12 353.73 L 279.71 353.73 C 277.67 368.51 269.83 375.90 256.20 375.90 C 242.56 375.90 234.53 368.51 232.12 353.73 Z" fill="#ffbbba" fill-rule="evenodd" group-id="2" id="路径-8备份" node-id="31" stroke="none" target-height="22.167297" target-width="47.59445" target-x="232.11945" target-y="353.7327"/><path d="M 234.61 350.00 L 277.05 350.00 C 278.54 350.00 279.75 351.21 279.75 352.70 C 279.75 352.97 279.71 353.23 279.63 353.49 C 276.36 364.16 268.55 369.50 256.20 369.50 C 243.88 369.50 235.84 364.20 232.07 353.61 C 231.57 352.20 232.30 350.66 233.71 350.16 C 234.00 350.05 234.30 350.00 234.61 350.00 Z" fill="#ffffff" fill-rule="evenodd" group-id="2" id="路径-8备份" node-id="32" stroke="none" target-height="19.5" target-width="48.17935" target-x="231.56967" target-y="350"/></g><g node-id="134"><path d="M 221.53 270.63 C 258.27 262.82 286.47 249.05 284.51 239.86 C 282.56 230.68 251.20 229.56 214.47 237.37 C 177.73 245.18 149.53 258.95 151.49 268.14 C 153.44 277.32 184.80 278.44 221.53 270.63 Z" fill="#ee6e25" fill-rule="evenodd" group-id="3" id="椭圆形" node-id="34" stroke="none" target-height="48.873413" target-width="136.93214" target-x="149.53392" target-y="229.5633"/><path d="M 310.90 264.49 C 332.19 276.77 353.38 279.91 358.24 271.50 C 363.10 263.09 349.78 246.30 328.50 234.01 C 307.21 221.73 286.02 218.59 281.16 227.00 C 276.30 235.41 289.62 252.20 310.90 264.49 Z" fill="#ee6e25" fill-rule="evenodd" group-id="3" id="椭圆形备份-2" node-id="35" stroke="none" target-height="61.329224" target-width="86.79263" target-x="276.30466" target-y="218.58539"/><path d="M 362.00 266.30 C 362.00 207.04 313.28 162.00 253.18 162.00 C 193.08 162.00 147.22 205.98 147.22 265.24 C 147.22 265.67 192.50 251.31 254.50 251.31 C 316.50 251.31 362.00 267.03 362.00 266.30 Z" fill="#fffcfa" fill-rule="evenodd" group-id="3" id="Fill-37" node-id="36" stroke="none" target-height="105.02881" target-width="214.77786" target-x="147.22214" target-y="162"/><g node-id="136"><path d="M 225.00 232.00 C 225.00 232.00 232.27 206.00 255.74 206.00 C 279.21 206.00 288.00 232.00 288.00 232.00 C 273.73 230.33 263.07 229.50 256.03 229.50 C 249.07 229.50 238.73 230.33 225.00 232.00 Z" fill="#ee6e25" fill-rule="evenodd" group-id="3,5" id="Stroke-43" node-id="38" stroke="none" target-height="26" target-width="63" target-x="225" target-y="206"/><path d="M 235.00 241.00 C 235.00 242.66 233.66 244.00 232.00 244.00 C 230.34 244.00 229.00 242.66 229.00 241.00 C 229.00 239.34 230.34 238.00 232.00 238.00 C 233.66 238.00 235.00 239.34 235.00 241.00 Z" fill="#ee6e25" fill-rule="evenodd" group-id="3,5" id="椭圆形" node-id="39" stroke="none" target-height="6" target-width="6" target-x="229" target-y="238"/><path d="M 247.00 241.00 C 247.00 242.66 245.66 244.00 244.00 244.00 C 242.34 244.00 241.00 242.66 241.00 241.00 C 241.00 239.34 242.34 238.00 244.00 238.00 C 245.66 238.00 247.00 239.34 247.00 241.00 Z" fill="#ee6e25" fill-rule="evenodd" group-id="3,5" id="椭圆形备份-3" node-id="40" stroke="none" target-height="6" target-width="6" target-x="241" target-y="238"/><path d="M 259.00 241.00 C 259.00 242.66 257.66 244.00 256.00 244.00 C 254.34 244.00 253.00 242.66 253.00 241.00 C 253.00 239.34 254.34 238.00 256.00 238.00 C 257.66 238.00 259.00 239.34 259.00 241.00 Z" fill="#ee6e25" fill-rule="evenodd" group-id="3,5" id="椭圆形备份-4" node-id="41" stroke="none" target-height="6" target-width="6" target-x="253" target-y="238"/><path d="M 271.00 241.00 C 271.00 242.66 269.66 244.00 268.00 244.00 C 266.34 244.00 265.00 242.66 265.00 241.00 C 265.00 239.34 266.34 238.00 268.00 238.00 C 269.66 238.00 271.00 239.34 271.00 241.00 Z" fill="#ee6e25" fill-rule="evenodd" group-id="3,5" id="椭圆形备份-5" node-id="42" stroke="none" target-height="6" target-width="6" target-x="265" target-y="238"/><path d="M 283.00 241.00 C 283.00 242.66 281.66 244.00 280.00 244.00 C 278.34 244.00 277.00 242.66 277.00 241.00 C 277.00 239.34 278.34 238.00 280.00 238.00 C 281.66 238.00 283.00 239.34 283.00 241.00 Z" fill="#ee6e25" fill-rule="evenodd" group-id="3,5" id="椭圆形备份-6" node-id="43" stroke="none" target-height="6" target-width="6" target-x="277" target-y="238"/></g></g></g></svg>