<svg height="512" node-id="1" sillyvg="true" template-height="512" template-width="512" version="1.1" viewBox="0 0 512 512" width="512" xmlns="http://www.w3.org/2000/svg" xmlns:xlink="http://www.w3.org/1999/xlink"><defs node-id="39"><mask height="70.52399" id="mask-2" maskUnits="userSpaceOnUse" node-id="15" width="60.31198" x="334.77814" y="303.9897"><path d="M 339.80 309.87 L 390.06 309.87 L 390.06 368.64 L 339.80 368.64 Z" fill="#ffffff" fill-rule="evenodd" node-id="44" stroke="none" target-height="58.76999" target-width="50.259857" target-x="339.80414" target-y="309.8667"/></mask><mask height="16.367523" id="mask-4" maskUnits="userSpaceOnUse" node-id="34" width="26.49504" x="245.71" y="142.03596"><path d="M 247.92 143.40 L 270.00 143.40 L 270.00 157.04 L 247.92 157.04 Z" fill="#ffffff" fill-rule="evenodd" node-id="51" stroke="none" target-height="13.639511" target-width="22.079208" target-x="247.91792" target-y="143.40001"/></mask></defs><path d="M 0.00 0.00 L 512.00 0.00 L 512.00 512.00 L 0.00 512.00 Z" fill="#c3ecfe" fill-rule="evenodd" id="矩形" node-id="8" stroke="none" target-height="512" target-width="512" target-x="0" target-y="0"/><g transform="translate(0, -75)"><g node-id="53"><path d="M 230.78 447.60 L 278.80 447.60 L 278.80 384.48 L 230.78 384.48 Z" fill="#ffbbba" fill-rule="evenodd" group-id="1" id="Fill-1" node-id="10" stroke="none" target-height="63.115997" target-width="48.015198" target-x="230.7804" target-y="384.4804"/><path d="M 230.57 415.74 C 240.17 418.24 248.79 419.50 256.43 419.50 C 264.07 419.50 271.46 418.24 278.59 415.74 L 278.59 352.62 L 230.57 352.62 L 230.57 415.74 Z" fill="#fb918d" fill-rule="evenodd" group-id="1" id="Fill-1" node-id="11" stroke="none" target-height="66.87628" target-width="48.015198" target-x="230.5744" target-y="352.622"/><g node-id="54"><path d="M 172.26 339.25 C 172.26 355.48 161.01 368.64 147.13 368.64 C 133.25 368.64 122.00 355.48 122.00 339.25 C 122.00 323.02 133.25 309.87 147.13 309.87 C 161.01 309.87 172.26 323.02 172.26 339.25" fill="#ffbbba" fill-rule="evenodd" group-id="1,2" id="Fill-2" node-id="13" stroke="none" target-height="58.76999" target-width="50.260002" target-x="122.00004" target-y="309.8667"/><g node-id="55"><g node-id="58"><path d="M 390.06 339.25 C 390.06 355.48 378.81 368.64 364.93 368.64 C 351.06 368.64 339.80 355.48 339.80 339.25 C 339.80 323.02 351.06 309.87 364.93 309.87 C 378.81 309.87 390.06 323.02 390.06 339.25" fill="#ffbbba" fill-rule="evenodd" group-id="1,2,3,6" id="Fill-6" node-id="18" stroke="none" target-height="58.76999" target-width="50.25998" target-x="339.80414" target-y="309.8667"/></g></g><path d="M 255.86 411.55 C 230.37 411.55 158.91 387.29 158.91 333.75 C 158.91 280.21 161.02 194.05 255.86 194.05 C 350.69 194.05 352.80 280.21 352.80 333.75 C 352.80 387.29 281.34 411.55 255.86 411.55 Z" fill="#ffbbba" fill-rule="evenodd" group-id="1,2" id="Fill-10" node-id="19" stroke="none" target-height="217.49998" target-width="193.88919" target-x="158.91223" target-y="194.04793"/><path d="M 255.86 404.55 C 230.37 404.55 158.91 380.29 158.91 326.75 C 158.91 273.21 161.02 187.05 255.86 187.05 C 350.69 187.05 352.80 273.21 352.80 326.75 C 352.80 380.29 281.34 404.55 255.86 404.55 Z" fill="#ffd5d6" fill-rule="evenodd" group-id="1,2" id="Fill-10" node-id="20" stroke="none" target-height="217.49998" target-width="193.88919" target-x="158.91223" target-y="187.04793"/><path d="M 263.28 335.00 C 263.28 339.00 247.99 339.00 247.99 335.00 C 247.99 330.60 251.42 327.36 255.64 327.36 C 259.86 327.36 263.28 330.60 263.28 335.00" fill="#e8b39f" fill-rule="evenodd" group-id="1,2" id="Fill-16" node-id="21" stroke="none" target-height="11.645599" target-width="15.291611" target-x="247.99184" target-y="327.359"/><path d="M 332.63 511.21 L 176.95 511.21 C 176.95 470.56 209.90 437.61 250.55 437.61 L 259.02 437.61 C 299.67 437.61 332.63 470.56 332.63 511.21" fill="#ffbbba" fill-rule="evenodd" group-id="1,2" id="Fill-18" node-id="22" stroke="none" target-height="73.60358" target-width="155.6748" target-x="176.95084" target-y="437.60846"/><path d="M 291.11 444.60 C 285.49 457.89 272.35 467.21 257.01 467.21 C 241.03 467.21 227.60 457.09 222.40 442.90 C 195.48 454.02 176.72 480.61 176.72 511.54 L 176.72 511.80 L 333.12 511.80 L 333.12 511.54 C 333.12 482.09 315.99 456.57 291.11 444.60" fill="#1c2b40" fill-rule="evenodd" group-id="1,2" id="Fill-20" node-id="23" stroke="none" target-height="68.90277" target-width="156.40001" target-x="176.71596" target-y="442.9018"/><path d="M 209.23 277.21 C 209.74 275.06 211.89 273.73 214.04 274.23 L 231.54 278.27 C 233.69 278.77 235.03 280.92 234.52 283.07 C 234.02 285.22 231.87 286.56 229.72 286.06 L 212.21 282.02 C 210.06 281.52 208.73 279.36 209.23 277.21 Z" fill="#4d4437" fill-rule="nonzero" group-id="1,2" id="Stroke-22" node-id="24" stroke="none" target-height="12.831848" target-width="26.298233" target-x="208.72832" target-y="273.7276"/><path d="M 302.73 277.17 C 303.25 279.32 301.94 281.49 299.79 282.01 L 296.55 282.77 L 283.23 285.82 L 282.28 286.05 C 280.13 286.57 277.97 285.24 277.45 283.09 C 276.94 280.95 278.26 278.79 280.41 278.27 L 285.24 277.15 L 295.48 274.81 L 297.89 274.24 C 300.03 273.72 302.20 275.03 302.73 277.17 Z" fill="#4d4437" fill-rule="nonzero" group-id="1,2" id="Stroke-24" node-id="25" stroke="none" target-height="12.850342" target-width="26.316711" target-x="276.9361" target-y="273.71576"/><path d="M 234.22 312.33 C 234.22 317.56 229.97 321.81 224.74 321.81 C 219.51 321.81 215.27 317.56 215.27 312.33 C 215.27 307.10 219.51 302.86 224.74 302.86 C 229.97 302.86 234.22 307.10 234.22 312.33" fill="#000000" fill-rule="evenodd" group-id="1,2" id="Fill-26" node-id="26" stroke="none" target-height="18.948395" target-width="18.948013" target-x="215.26808" target-y="302.85797"/><path d="M 296.45 312.33 C 296.45 317.56 292.20 321.81 286.97 321.81 C 281.74 321.81 277.50 317.56 277.50 312.33 C 277.50 307.10 281.74 302.86 286.97 302.86 C 292.20 302.86 296.45 307.10 296.45 312.33" fill="#000000" fill-rule="evenodd" group-id="1,2" id="Fill-28" node-id="27" stroke="none" target-height="18.948395" target-width="18.948395" target-x="277.49756" target-y="302.85797"/><path d="M 269.64 344.91 C 269.95 343.85 271.06 343.24 272.12 343.55 C 273.18 343.86 273.79 344.97 273.48 346.03 C 271.95 351.26 268.16 355.76 263.27 358.16 C 258.38 360.56 252.50 360.80 247.43 358.80 C 246.40 358.40 245.89 357.24 246.30 356.21 C 246.70 355.18 247.86 354.68 248.89 355.08 C 252.91 356.66 257.62 356.47 261.51 354.57 C 265.39 352.66 268.42 349.06 269.64 344.91 Z" fill="#d06946" fill-rule="nonzero" group-id="1,2" id="Stroke-30" node-id="28" stroke="none" target-height="17.55838" target-width="27.893463" target-x="245.8931" target-y="343.23825"/><path d="M 153.70 231.00 C 150.70 252.30 156.36 303.99 160.31 316.43 L 167.27 320.21 L 171.92 263.83 L 171.92 236.32 L 153.70 231.00 Z" fill="#1f448b" fill-rule="evenodd" group-id="1,2" id="Fill-32" node-id="29" stroke="none" target-height="89.21521" target-width="21.219986" target-x="150.69577" target-y="230.99796"/><path d="M 357.57 231.00 C 360.37 252.30 355.03 303.99 351.34 316.43 L 344.95 320.21 L 340.72 263.83 L 340.72 236.32 L 357.57 231.00 Z" fill="#1f448b" fill-rule="evenodd" group-id="1,2" id="Fill-34" node-id="30" stroke="none" target-height="89.21521" target-width="19.651215" target-x="340.71594" target-y="230.99796"/><path d="M 172.26 242.13 C 173.46 259.16 166.09 256.31 191.95 259.16 L 199.14 243.13 L 198.01 259.74 C 214.64 261.14 234.46 261.22 255.75 261.22 C 265.85 261.22 275.62 261.20 284.88 261.03 L 284.44 235.51 L 293.77 260.82 C 333.75 259.56 340.72 263.23 340.72 242.13 C 340.72 214.79 328.93 162.22 255.75 162.22 C 182.58 162.22 170.33 214.82 172.26 242.13 Z" fill="#ffbbba" fill-rule="evenodd" group-id="1,2" id="Fill-36" node-id="31" stroke="none" target-height="101.0112" target-width="174.6265" target-x="166.08945" target-y="162.22336"/><path d="M 255.75 155.22 C 182.58 155.22 149.36 203.77 149.36 231.10 C 149.36 247.30 166.09 249.31 191.95 252.16 L 199.14 235.13 L 198.01 252.74 C 214.64 254.14 234.46 254.22 255.75 254.22 C 265.85 254.22 275.62 254.20 284.88 254.03 L 284.44 228.51 L 293.77 253.82 C 333.75 252.56 362.14 252.21 362.14 231.10 C 362.14 203.77 328.93 155.22 255.75 155.22" fill="#1f448b" fill-rule="evenodd" group-id="1,2" id="Fill-36" node-id="32" stroke="none" target-height="98.9948" target-width="212.784" target-x="149.35864" target-y="155.22337"/><g node-id="56"><g node-id="60"><path d="M 248.00 143.40 C 253.61 144.52 257.23 149.83 260.24 154.69 C 262.55 150.67 265.83 147.21 269.72 144.68 C 270.62 149.03 269.30 153.78 266.28 157.04 C 262.05 156.54 257.68 155.98 253.99 153.85 C 250.29 151.72 247.39 147.62 248.00 143.40" fill="#1f448b" fill-rule="evenodd" group-id="1,2,4,8" id="Fill-38" node-id="37" stroke="none" target-height="13.639587" target-width="23.223206" target-x="247.39453" target-y="143.39993"/></g></g></g></g></g></svg>