<svg height="512" node-id="1" sillyvg="true" template-height="512" template-width="512" version="1.1" viewBox="0 0 512 512" width="512" xmlns="http://www.w3.org/2000/svg" xmlns:xlink="http://www.w3.org/1999/xlink"><defs node-id="46"><mask height="70.52399" id="mask-2" maskUnits="userSpaceOnUse" node-id="15" width="60.31198" x="334.77814" y="304.3501"><path d="M 339.80 310.23 L 390.06 310.23 L 390.06 369.00 L 339.80 369.00 Z" fill="#ffffff" fill-rule="evenodd" node-id="51" stroke="none" target-height="58.76999" target-width="50.259857" target-x="339.80414" target-y="310.2271"/></mask><mask height="143.0228" id="mask-4" maskUnits="userSpaceOnUse" node-id="31" width="265.77435" x="121.36224" y="152.48117"><path d="M 143.30 157.40 L 368.29 157.40 L 368.29 278.50 L 143.30 278.50 Z" fill="#ffffff" fill-rule="evenodd" node-id="58" stroke="none" target-height="121.100174" target-width="224.99095" target-x="143.29787" target-y="157.40001"/></mask><mask height="145.32051" id="mask1" maskUnits="userSpaceOnUse" node-id="62" width="269.9891" x="120.79879" y="145.28972"><path d="M 143.30 157.40 L 368.29 157.40 L 368.29 278.50 L 143.30 278.50 Z" fill="#ffffff" fill-rule="evenodd" node-id="66" stroke="none" target-height="121.100174" target-width="224.99095" target-x="143.29787" target-y="157.40001"/></mask></defs><path d="M 0.00 0.00 L 512.00 0.00 L 512.00 512.00 L 0.00 512.00 Z" fill="#feecd6" fill-rule="evenodd" id="矩形" node-id="8" stroke="none" target-height="512" target-width="512" target-x="0" target-y="0"/><g transform="translate(0, -75)"><g node-id="68"><path d="M 230.78 447.96 L 278.80 447.96 L 278.80 384.84 L 230.78 384.84 Z" fill="#ffbbba" fill-rule="evenodd" group-id="1" id="Fill-1" node-id="10" stroke="none" target-height="63.115967" target-width="48.015198" target-x="230.7804" target-y="384.84082"/><g node-id="69"><path d="M 230.57 415.74 C 240.17 418.24 248.79 419.50 256.43 419.50 C 264.07 419.50 271.46 418.24 278.59 415.74 L 278.59 352.62 L 230.57 352.62 L 230.57 415.74 Z" fill="#fb918d" fill-rule="evenodd" group-id="1,2" id="Fill-1" node-id="12" stroke="none" target-height="66.87628" target-width="48.015198" target-x="230.5744" target-y="352.622"/><path d="M 172.26 339.61 C 172.26 355.84 161.01 369.00 147.13 369.00 C 133.25 369.00 122.00 355.84 122.00 339.61 C 122.00 323.38 133.25 310.23 147.13 310.23 C 161.01 310.23 172.26 323.38 172.26 339.61" fill="#ffbbba" fill-rule="evenodd" group-id="1,2" id="Fill-2" node-id="13" stroke="none" target-height="58.76999" target-width="50.259605" target-x="122.00024" target-y="310.22708"/><g node-id="70"><g node-id="75"><path d="M 390.06 339.61 C 390.06 355.84 378.81 369.00 364.93 369.00 C 351.06 369.00 339.80 355.84 339.80 339.61 C 339.80 323.38 351.06 310.23 364.93 310.23 C 378.81 310.23 390.06 323.38 390.06 339.61" fill="#ffbbba" fill-rule="evenodd" group-id="1,2,3,8" id="Fill-6" node-id="18" stroke="none" target-height="58.76999" target-width="50.25998" target-x="339.80414" target-y="310.2271"/></g></g><path d="M 255.86 411.91 C 230.37 411.91 158.91 387.65 158.91 334.11 C 158.91 280.57 161.02 194.41 255.86 194.41 C 350.69 194.41 352.80 280.57 352.80 334.11 C 352.80 387.65 281.34 411.91 255.86 411.91 Z" fill="#ffbbba" fill-rule="evenodd" group-id="1,2" id="Fill-10" node-id="19" stroke="none" target-height="217.5" target-width="193.88919" target-x="158.91245" target-y="194.40833"/><path d="M 255.86 404.91 C 230.37 404.91 158.91 380.65 158.91 327.11 C 158.91 273.57 161.02 187.41 255.86 187.41 C 350.69 187.41 352.80 273.57 352.80 327.11 C 352.80 380.65 281.34 404.91 255.86 404.91 Z" fill="#ffd5d6" fill-rule="evenodd" group-id="1,2" id="Fill-10" node-id="20" stroke="none" target-height="217.5" target-width="193.88919" target-x="158.91245" target-y="187.40833"/><path d="M 263.28 335.37 C 263.28 339.37 247.99 339.37 247.99 335.37 C 247.99 330.96 251.41 327.72 255.64 327.72 C 259.86 327.72 263.28 330.96 263.28 335.37" fill="#e8b39f" fill-rule="evenodd" group-id="1,2" id="Fill-16" node-id="21" stroke="none" target-height="11.645569" target-width="15.291595" target-x="247.99167" target-y="327.71942"/><path d="M 332.63 511.57 L 176.95 511.57 C 176.95 470.92 209.90 437.97 250.55 437.97 L 259.02 437.97 C 299.67 437.97 332.63 470.92 332.63 511.57" fill="#ffbbba" fill-rule="evenodd" group-id="1,2" id="Fill-18" node-id="22" stroke="none" target-height="73.60361" target-width="155.6748" target-x="176.95068" target-y="437.96884"/><path d="M 291.11 444.97 C 285.49 458.25 272.35 467.57 257.01 467.57 C 241.03 467.57 227.60 457.45 222.40 443.26 C 195.48 454.38 176.72 480.97 176.72 511.91 L 176.72 512.17 L 333.12 512.17 L 333.12 511.91 C 333.12 482.45 315.99 456.93 291.11 444.97" fill="#f5a623" fill-rule="evenodd" group-id="1,2" id="Fill-20" node-id="23" stroke="none" target-height="68.90283" target-width="156.39996" target-x="176.71576" target-y="443.2622"/><path d="M 298.84 278.49 C 293.91 279.70 287.93 280.94 281.34 282.52" fill="none" group-id="1,2" id="Stroke-24" node-id="24" stroke="#8a6530" stroke-linecap="round" stroke-width="8" target-height="4.034027" target-width="17.500427" target-x="281.34106" target-y="278.48727"/><path d="M 234.22 312.69 C 234.22 317.93 229.97 322.17 224.74 322.17 C 219.51 322.17 215.27 317.93 215.27 312.69 C 215.27 307.46 219.51 303.22 224.74 303.22 C 229.97 303.22 234.22 307.46 234.22 312.69" fill="#000000" fill-rule="evenodd" group-id="1,2" id="Fill-26" node-id="25" stroke="none" target-height="18.948364" target-width="18.948013" target-x="215.26808" target-y="303.21838"/><path d="M 296.45 312.69 C 296.45 317.93 292.20 322.17 286.97 322.17 C 281.74 322.17 277.50 317.93 277.50 312.69 C 277.50 307.46 281.74 303.22 286.97 303.22 C 292.20 303.22 296.45 307.46 296.45 312.69" fill="#000000" fill-rule="evenodd" group-id="1,2" id="Fill-28" node-id="26" stroke="none" target-height="18.948364" target-width="18.947998" target-x="277.49774" target-y="303.21838"/><path d="M 269.64 345.27 C 269.95 344.21 271.06 343.60 272.12 343.91 C 273.18 344.22 273.79 345.33 273.48 346.39 C 271.95 351.62 268.16 356.12 263.27 358.52 C 258.38 360.92 252.50 361.16 247.43 359.16 C 246.40 358.76 245.89 357.60 246.30 356.57 C 246.70 355.54 247.86 355.04 248.89 355.44 C 252.91 357.02 257.62 356.83 261.51 354.93 C 265.39 353.02 268.42 349.42 269.64 345.27 Z" fill="#d06946" fill-rule="nonzero" group-id="1,2" id="Stroke-30" node-id="27" stroke="none" target-height="17.55841" target-width="27.893463" target-x="245.8931" target-y="343.59863"/><path d="M 164.16 264.86 C 165.45 266.65 165.59 268.99 165.68 271.20 C 166.38 287.40 167.08 303.60 167.78 319.80 C 163.57 317.57 159.23 315.22 156.37 311.42 C 153.30 307.32 152.33 302.05 151.72 296.97 C 150.11 283.56 150.41 269.93 152.60 256.61 C 154.12 261.22 161.32 260.91 164.16 264.86" fill="#614536" fill-rule="evenodd" group-id="1,2" id="Fill-32" node-id="28" stroke="none" target-height="63.195618" target-width="17.667206" target-x="150.10867" target-y="256.60635"/><path d="M 347.92 264.86 C 346.63 266.65 346.49 268.99 346.39 271.20 C 345.69 287.40 345.00 303.60 344.30 319.80 C 348.50 317.57 352.84 315.22 355.70 311.42 C 358.78 307.32 359.75 302.05 360.36 296.97 C 361.96 283.56 361.67 269.93 359.48 256.61 C 357.95 261.22 350.76 260.91 347.92 264.86" fill="#614536" fill-rule="evenodd" group-id="1,2" id="Fill-34" node-id="29" stroke="none" target-height="63.195618" target-width="17.667206" target-x="344.29767" target-y="256.60635"/><g node-id="71"><g node-id="77"><path d="M 281.94 262.85 C 283.82 268.48 271.15 274.45 265.28 275.34 C 205.17 284.43 188.33 288.09 172.26 275.34 C 163.91 268.71 142.31 259.94 143.56 240.33 C 147.17 183.87 211.01 152.48 261.60 168.63 C 269.87 171.15 283.48 175.19 290.09 180.76 C 306.64 195.25 298.53 181.94 319.08 181.50 C 341.58 181.02 357.53 199.28 363.96 219.57 C 369.02 235.54 353.98 247.50 350.98 256.61 C 344.72 275.61 339.18 281.02 315.44 276.17 C 311.15 275.29 307.77 271.98 306.77 267.71 C 304.45 257.78 313.12 214.37 290.72 223.21 C 280.42 214.11 275.41 227.84 274.56 230.71 C 272.12 238.86 278.42 252.31 281.94 262.85 Z" fill="#ffbbba" fill-rule="evenodd" group-id="1,2,4,10" id="Fill-36" node-id="34" stroke="none" target-height="135.60065" target-width="226.70645" target-x="142.31033" target-y="152.4848"/></g><path d="M 269.56 223.71 C 267.12 231.86 269.42 245.31 272.94 255.85 C 274.82 261.48 271.15 267.45 265.28 268.34 C 173.93 282.16 139.90 290.67 143.56 233.33 C 147.17 176.87 211.01 145.48 261.60 161.63 C 269.87 164.15 283.48 168.19 290.09 173.76 C 306.64 188.25 298.53 174.94 319.08 174.50 C 341.58 174.02 357.53 192.28 363.96 212.57 C 379.57 261.85 350.56 276.35 315.44 269.17 C 311.15 268.29 307.77 264.98 306.77 260.71 C 304.45 250.78 313.12 207.37 290.72 216.21 C 280.42 207.11 270.41 220.84 269.56 223.71" fill="#614536" fill-rule="evenodd" group-id="1,2,4,11" id="Fill-36" node-id="35" stroke="none" target-height="145.18079" target-width="239.6708" target-x="139.90192" target-y="145.4848"/></g><path d="M 213.13 278.49 C 218.57 279.77 224.61 281.11 230.63 282.52" fill="none" group-id="1,2" id="Stroke-22" node-id="36" stroke="#8a6530" stroke-linecap="round" stroke-width="8" target-height="4.034027" target-width="17.500397" target-x="213.1278" target-y="278.48727"/><g node-id="72"><path d="M 206.26 287.28 C 180.65 287.28 164.33 298.41 164.33 320.01 C 164.33 342.69 182.55 359.15 206.26 359.15 C 229.96 359.15 248.19 342.69 248.19 320.01 C 248.19 298.41 231.86 287.28 206.26 287.28 Z M 206.26 291.28 C 229.91 291.28 244.19 301.02 244.19 320.01 C 244.19 340.38 227.84 355.15 206.26 355.15 C 184.67 355.15 168.33 340.38 168.33 320.01 C 168.33 301.02 182.61 291.28 206.26 291.28 Z" fill="#ffbbba" fill-rule="nonzero" group-id="1,2,5" id="Stroke-38" node-id="38" stroke="none" target-height="71.86038" target-width="83.8604" target-x="164.32675" target-y="287.28464"/><path d="M 305.46 287.28 C 279.85 287.28 263.53 298.41 263.53 320.01 C 263.53 342.69 281.75 359.15 305.46 359.15 C 329.16 359.15 347.39 342.69 347.39 320.01 C 347.39 298.41 331.06 287.28 305.46 287.28 Z M 305.46 291.28 C 329.11 291.28 343.39 301.02 343.39 320.01 C 343.39 340.38 327.04 355.15 305.46 355.15 C 283.87 355.15 267.53 340.38 267.53 320.01 C 267.53 301.02 281.81 291.28 305.46 291.28 Z" fill="#ffbbba" fill-rule="nonzero" group-id="1,2,5" id="Stroke-40" node-id="39" stroke="none" target-height="71.86038" target-width="83.86041" target-x="263.5268" target-y="287.28464"/><path d="M 268.72 313.17 C 269.82 313.17 270.72 314.06 270.72 315.17 C 270.72 316.22 269.90 317.08 268.86 317.16 L 268.72 317.17 L 242.72 317.17 C 241.61 317.17 240.72 316.27 240.72 315.17 C 240.72 314.11 241.53 313.25 242.57 313.17 L 242.72 313.17 L 268.72 313.17 Z" fill="#ffbbba" fill-rule="nonzero" group-id="1,2,5" id="Stroke-42" node-id="40" stroke="none" target-height="4" target-width="30" target-x="240.71567" target-y="313.165"/></g><g node-id="73"><path d="M 206.26 282.28 C 180.65 282.28 164.33 293.41 164.33 315.01 C 164.33 337.69 182.55 354.15 206.26 354.15 C 229.96 354.15 248.19 337.69 248.19 315.01 C 248.19 293.41 231.86 282.28 206.26 282.28 Z M 206.26 286.28 C 229.91 286.28 244.19 296.02 244.19 315.01 C 244.19 335.38 227.84 350.15 206.26 350.15 C 184.67 350.15 168.33 335.38 168.33 315.01 C 168.33 296.02 182.61 286.28 206.26 286.28 Z" fill="#ffffff" fill-rule="nonzero" group-id="1,2,6" id="Stroke-38" node-id="42" stroke="none" target-height="71.86038" target-width="83.8604" target-x="164.32675" target-y="282.28464"/><path d="M 305.46 282.28 C 279.85 282.28 263.53 293.41 263.53 315.01 C 263.53 337.69 281.75 354.15 305.46 354.15 C 329.16 354.15 347.39 337.69 347.39 315.01 C 347.39 293.41 331.06 282.28 305.46 282.28 Z M 305.46 286.28 C 329.11 286.28 343.39 296.02 343.39 315.01 C 343.39 335.38 327.04 350.15 305.46 350.15 C 283.87 350.15 267.53 335.38 267.53 315.01 C 267.53 296.02 281.81 286.28 305.46 286.28 Z" fill="#ffffff" fill-rule="nonzero" group-id="1,2,6" id="Stroke-40" node-id="43" stroke="none" target-height="71.86038" target-width="83.86041" target-x="263.5268" target-y="282.28464"/><path d="M 268.72 308.17 C 269.82 308.17 270.72 309.06 270.72 310.17 C 270.72 311.22 269.90 312.08 268.86 312.16 L 268.72 312.17 L 242.72 312.17 C 241.61 312.17 240.72 311.27 240.72 310.17 C 240.72 309.11 241.53 308.25 242.57 308.17 L 242.72 308.17 L 268.72 308.17 Z" fill="#ffffff" fill-rule="nonzero" group-id="1,2,6" id="Stroke-42" node-id="44" stroke="none" target-height="4" target-width="30" target-x="240.71567" target-y="308.165"/></g></g></g></g></svg>