<?xml version="1.0" encoding="UTF-8"?>
<svg width="512px" height="512px" viewBox="0 0 512 512" version="1.1" xmlns="http://www.w3.org/2000/svg" xmlns:xlink="http://www.w3.org/1999/xlink">
    <title>女生-青</title>
    <defs>
        <polygon id="path-1" points="0.25568 0.3112 239.28848 0.3112 239.28848 225.43304 0.25568 225.43304"></polygon>
        <polygon id="path-3" points="0 339.2 268.064 339.2 268.064 0.3112 0 0.3112"></polygon>
    </defs>
    <g id="女生-青" stroke="none" stroke-width="1" fill="none" fill-rule="evenodd">
        <rect id="矩形" fill="#C4FFFD" x="0" y="0" width="512" height="512"></rect>
        <g id="编组" transform="translate(122.000000, 110.000000)">
            <g transform="translate(0.000000, 0.088800)">
                <g transform="translate(17.200000, 0.000000)">
                    <mask id="mask-2" fill="white">
                        <use xlink:href="#path-1"></use>
                    </mask>
                    <g id="Clip-2"></g>
                    <path d="M225.34168,225.43304 L14.20208,225.43304 C6.50008,225.43304 0.25568,219.18904 0.25568,211.48664 L0.25568,119.82744 C0.25568,53.82064 53.76488,0.31104 119.77208,0.31104 L119.77208,0.31104 C185.77928,0.31104 239.28848,53.82064 239.28848,119.82744 L239.28848,211.48664 C239.28848,219.18904 233.04408,225.43304 225.34168,225.43304" id="Fill-1" fill="#3883A2" mask="url(#mask-2)"></path>
                </g>
                <mask id="mask-4" fill="white">
                    <use xlink:href="#path-3"></use>
                </mask>
                <g id="Clip-4"></g>
                <polygon id="Fill-3" fill="#FFBBBA" mask="url(#mask-4)" points="108.7804 274.9916 156.7956 274.9916 156.7956 211.8756 108.7804 211.8756"></polygon>
                <path d="M108.7804,243.5332 C117.607842,245.654302 125.610376,246.714852 132.788,246.714852 C139.965624,246.714852 147.968158,245.654302 156.7956,243.5332 L156.7956,210.5332 L108.7804,210.5332 L108.7804,243.5332 Z" id="Fill-3" fill="#FB918D" mask="url(#mask-4)"></path>
                <path d="M50.26004,166.64668 C50.26004,182.87548 39.00884,196.03188 25.13004,196.03188 C11.25124,196.03188 4e-05,182.87548 4e-05,166.64668 C4e-05,150.41788 11.25124,137.26188 25.13004,137.26188 C39.00884,137.26188 50.26004,150.41788 50.26004,166.64668" id="Fill-5" fill="#FFBBBA" mask="url(#mask-4)"></path>
                <path d="M268.06412,166.64668 C268.06412,182.87548 256.81292,196.03188 242.93412,196.03188 C229.05532,196.03188 217.80412,182.87548 217.80412,166.64668 C217.80412,150.41788 229.05532,137.26188 242.93412,137.26188 C256.81292,137.26188 268.06412,150.41788 268.06412,166.64668" id="Fill-7" fill="#FFBBBA" mask="url(#mask-4)"></path>
                <path d="M133.85704,238.94312 C108.3728,238.94312 36.91224,214.68752 36.91224,161.14632 C36.91224,107.60512 80.31624,45.05432 133.85704,45.05432 C187.39784,45.05432 230.80144,107.60512 230.80144,161.14632 C230.80144,214.68752 159.34128,238.94312 133.85704,238.94312 Z" id="Fill-9" fill="#FFBBBA" mask="url(#mask-4)"></path>
                <path d="M133.85704,231.94312 C108.3728,231.94312 36.91224,207.68752 36.91224,154.14632 C36.91224,100.60512 80.31624,38.05432 133.85704,38.05432 C187.39784,38.05432 230.80144,100.60512 230.80144,154.14632 C230.80144,207.68752 159.34128,231.94312 133.85704,231.94312 Z" id="Fill-9" fill="#FFD5D6" mask="url(#mask-4)"></path>
                <path d="M99.74204,131.85316 C106.078959,131.85316 111.21604,136.99054 111.21604,143.32756 C111.21604,144.432129 110.320609,145.32756 109.21604,145.32756 C108.111471,145.32756 107.21604,144.432129 107.21604,143.32756 C107.21604,139.199627 103.869768,135.85316 99.74204,135.85316 C95.6143119,135.85316 92.26804,139.199627 92.26804,143.32756 C92.26804,144.432129 91.3726095,145.32756 90.26804,145.32756 C89.1634705,145.32756 88.26804,144.432129 88.26804,143.32756 C88.26804,136.99054 93.4051207,131.85316 99.74204,131.85316 Z" id="Stroke-12" fill="#000000" fill-rule="nonzero" mask="url(#mask-4)"></path>
                <path d="M168.97172,131.85316 C175.308689,131.85316 180.44612,136.990591 180.44612,143.32756 C180.44612,144.432129 179.550689,145.32756 178.44612,145.32756 C177.341551,145.32756 176.44612,144.432129 176.44612,143.32756 C176.44612,139.199729 173.099551,135.85316 168.97172,135.85316 C164.843992,135.85316 161.49772,139.199627 161.49772,143.32756 C161.49772,144.432129 160.602289,145.32756 159.49772,145.32756 C158.393151,145.32756 157.49772,144.432129 157.49772,143.32756 C157.49772,136.99054 162.634801,131.85316 168.97172,131.85316 Z" id="Stroke-13" fill="#000000" fill-rule="nonzero" mask="url(#mask-4)"></path>
                <path d="M141.28344,162.3998 C141.28344,166.3998 125.99184,166.3998 125.99184,162.3998 C125.99184,157.9998 129.41504,154.7542 133.63744,154.7542 C137.86024,154.7542 141.28344,157.9998 141.28344,162.3998" id="Fill-14" fill="#E8B39F" mask="url(#mask-4)"></path>
                <path d="M40.458362,149.9112 C25.271162,76.2352 68.88308,17.6828 143.12428,17.6828 C186.22708,17.6828 254.14424,61.4241179 227.18464,148.074918 C198.65104,143.338118 159.95708,112.8312 135.49948,55.4412 C110.50108,114.5596 66.491562,142.3212 40.458362,149.9112 Z" id="Fill-15" fill="#FFBBBA" mask="url(#mask-4)"></path>
                <path d="M135.49948,44.4412 C110.50108,103.5596 64.69268,134.4088 38.65948,141.9988 C23.47228,68.3228 68.88308,9.6828 143.12428,9.6828 C186.22708,9.6828 256.20908,55.348 229.24948,141.9988 C200.71588,137.262 159.95708,101.8312 135.49948,44.4412" id="Fill-15" fill="#4A8CB2" mask="url(#mask-4)"></path>
                <path d="M210.62564,338.60724 L54.95084,338.60724 C54.95084,297.95684 87.90404,265.00364 128.55404,265.00364 L137.02204,265.00364 C177.67204,265.00364 210.62564,297.95684 210.62564,338.60724" id="Fill-16" fill="#FFBBBA" mask="url(#mask-4)"></path>
                <path d="M169.11316,272.0002 C163.48556,285.2842 150.34916,294.6038 135.01396,294.6038 C119.03116,294.6038 105.59636,284.481 100.40356,270.297 C73.48076,281.4142 54.71596,308.0022 54.71596,338.9402 L54.71596,339.1998 L211.11596,339.1998 L211.11596,338.9402 C211.11596,309.4882 193.98956,283.967 169.11316,272.0002" id="Fill-17" fill="#FEB368" mask="url(#mask-4)"></path>
            </g>
            <g transform="translate(90.800000, 105.288800)" fill="#343857" fill-rule="nonzero">
                <path d="M17.6800771,-1.67246736 C18.7816131,-1.75427339 19.7409013,-0.92761892 19.8227074,0.173917077 C19.9045134,1.27545307 19.0778589,2.23474133 17.9763229,2.31654736 C11.9907802,2.76106619 6.16885248,4.10327855 1.09270156,6.20439173 C0.0721059983,6.6268352 -1.09770827,6.14193712 -1.52015173,5.12134156 C-1.9425952,4.100746 -1.45769712,2.93093173 -0.437101559,2.50848827 C5.04073508,0.241109899 11.2790132,-1.19708967 17.6800771,-1.67246736 Z" id="Stroke-21"></path>
                <path d="M68.5401538,-1.67805152 L68.6894124,-1.67246665 C75.0902887,-1.1970722 81.3289308,0.241186831 86.8065816,2.50848827 C87.8271771,2.93093173 88.3120752,4.100746 87.8896317,5.12134156 C87.4671883,6.14193712 86.297374,6.6268352 85.2767784,6.20439173 C80.2008157,4.10335644 74.3785167,2.7610813 68.3931476,2.31654665 C67.291612,2.23473537 66.4649621,1.27544317 66.5467733,0.173907563 C66.6248659,-0.877558243 67.5024814,-1.67856 68.5401538,-1.67805152 Z" id="Stroke-23"></path>
            </g>
        </g>
        <g id="编组-13" transform="translate(239.000000, 352.000000)">
            <path d="M0.22,5.65228588 C1.61184502,22.9654286 7.20381836,31.622 16.99592,31.622 C26.7880216,31.622 32.5622607,22.9654286 34.3186371,5.65228588 L0.22,5.65228588 Z" id="路径-8" fill="#FFBBBA"></path>
            <path d="M0,5.65228588 C1.8953751,15.5128548 7.62837618,20.4431393 17.1990032,20.4431393 C26.7696303,20.4431393 32.5026314,15.5128548 34.3980065,5.65228588 L0,5.65228588 Z" id="路径-6备份" fill="#FF7D51"></path>
            <path d="M4.54747351e-13,5.65228588 L34.3980065,5.65228588 C30.4729864,10.4726489 24.7399853,12.8828304 17.1990032,12.8828304 C9.65802115,12.8828304 3.92502007,10.4726489 4.54747351e-13,5.65228588 Z" id="路径-5备份" fill="#FFFEFF"></path>
            <path d="M0.22,5.65228588 C3.86023224,1.88409529 7.5901511,0 11.4097566,0 C15.2293621,0 17.1827766,1.88409529 17.27,5.65228588 L0.22,5.65228588 Z" id="路径-7备份-2" fill="#FF7D51"></path>
            <path d="M17.2686371,5.65228588 C20.9088694,1.88409529 24.6387883,0 28.4583937,0 C32.2779992,0 34.2314137,1.88409529 34.3186371,5.65228588 L17.2686371,5.65228588 Z" id="路径-7备份-3" fill="#FF7D51" transform="translate(25.793637, 2.826143) scale(-1, 1) translate(-25.793637, -2.826143) "></path>
        </g>
    </g>
</svg>