<?xml version="1.0" encoding="UTF-8"?>
<svg width="512px" height="512px" viewBox="0 0 512 512" version="1.1" xmlns="http://www.w3.org/2000/svg" xmlns:xlink="http://www.w3.org/1999/xlink">
    <title>女生-欧</title>
    <defs>
        <polygon id="path-1" points="0.140687387 0.2536 245.688318 0.2536 245.688318 334.79988 0.140687387 334.79988"></polygon>
        <polygon id="path-3" points="0 350.9464 268.064 350.9464 268.064 0.4 0 0.4"></polygon>
    </defs>
    <g id="女生-欧" stroke="none" stroke-width="1" fill="none" fill-rule="evenodd">
        <rect id="矩形" fill="#ECC6DF" x="0" y="0" width="512" height="512"></rect>
        <g id="编组" transform="translate(122.000000, 100.000000)">
            <g transform="translate(10.800000, 0.146400)">
                <mask id="mask-2" fill="white">
                    <use xlink:href="#path-1"></use>
                </mask>
                <g id="Clip-2"></g>
                <path d="M245.12372,122.46268 C245.12372,327.59988 261.11292,334.79988 122.91452,334.79988 C-15.28428,334.79988 0.70532,325.99988 0.70532,122.46268 C0.70532,54.96828 55.42012,0.25348 122.91452,0.25348 C190.40852,0.25348 245.12372,54.96828 245.12372,122.46268" id="Fill-1" fill="#744C32" mask="url(#mask-2)"></path>
            </g>
            <mask id="mask-4" fill="white">
                <use xlink:href="#path-3"></use>
            </mask>
            <g id="Clip-4"></g>
            <polygon id="Fill-3" fill="#FFBBBA" mask="url(#mask-4)" points="108.7804 286.738 156.7956 286.738 156.7956 223.622 108.7804 223.622"></polygon>
            <path d="M108.7804,255.622 C117.607842,257.743102 125.610376,258.803652 132.788,258.803652 C139.965624,258.803652 147.968158,257.743102 156.7956,255.622 L156.7956,222.622 L108.7804,222.622 L108.7804,255.622 Z" id="Fill-3" fill="#FB918D" mask="url(#mask-4)"></path>
            <path d="M50.26004,178.39328 C50.26004,194.62208 39.00884,207.77808 25.13004,207.77808 C11.25124,207.77808 4e-05,194.62208 4e-05,178.39328 C4e-05,162.16448 11.25124,149.00848 25.13004,149.00848 C39.00884,149.00848 50.26004,162.16448 50.26004,178.39328" id="Fill-5" fill="#FFBBBA" mask="url(#mask-4)"></path>
            <path d="M268.06412,178.39328 C268.06412,194.62208 256.81292,207.77808 242.93412,207.77808 C229.05532,207.77808 217.80412,194.62208 217.80412,178.39328 C217.80412,162.16448 229.05532,149.00848 242.93412,149.00848 C256.81292,149.00848 268.06412,162.16448 268.06412,178.39328" id="Fill-7" fill="#FFBBBA" mask="url(#mask-4)"></path>
            <path d="M131.85704,250.68968 C104.063,250.68968 36.91224,226.43368 36.91224,172.89288 C36.91224,119.35168 80.31624,56.80088 133.85704,56.80088 C187.39784,56.80088 230.80144,119.35168 230.80144,172.89288 C230.80144,226.43368 159.65108,250.68968 131.85704,250.68968 Z" id="Fill-9" fill="#FFBBBA" mask="url(#mask-4)"></path>
            <path d="M131.85704,243.68968 C104.063,243.68968 36.91224,219.43368 36.91224,165.89288 C36.91224,112.35168 80.31624,49.80088 133.85704,49.80088 C187.39784,49.80088 230.80144,112.35168 230.80144,165.89288 C230.80144,219.43368 159.65108,243.68968 131.85704,243.68968 Z" id="Fill-9" fill="#FFD5D6" mask="url(#mask-4)"></path>
            <path d="M141.28344,174.1464 C141.28344,178.1464 125.99184,178.1464 125.99184,174.1464 C125.99184,169.7464 129.41504,166.5008 133.63744,166.5008 C137.86024,166.5008 141.28344,169.7464 141.28344,174.1464" id="Fill-13" fill="#E8B39F" mask="url(#mask-4)"></path>
            <path d="M151.571553,187.129898 C152.204395,186.224589 153.451313,186.003711 154.356622,186.636553 C155.261931,187.269395 155.482809,188.516313 154.849967,189.421622 C148.972546,197.829538 139.827246,201.404805 130.115406,200.114745 C129.020454,199.969299 128.250728,198.963758 128.396175,197.868806 C128.541621,196.773854 129.547162,196.004128 130.642114,196.149575 C138.93151,197.250686 146.589578,194.256838 151.571553,187.129898 Z" id="Stroke-14" fill="#D06946" fill-rule="nonzero" mask="url(#mask-4)"></path>
            <path d="M40.2482073,159.94816 C25.0610073,86.27176 68.88328,29.42968 143.12448,29.42968 C186.22688,29.42968 253.287892,74.3488 226.328292,161 C208.660292,162.352 200.29928,141.07528 175.84168,83.68528 C150.84328,142.80368 66.2814073,152.35776 40.2482073,159.94816 Z" id="Fill-16" fill="#FFBEB9" mask="url(#mask-4)"></path>
            <path d="M176.84168,70.68528 C151.84328,129.80368 64.69288,146.15488 38.65968,153.74528 C23.47248,80.06888 68.88328,21.42968 143.12448,21.42968 C186.22688,21.42968 256.20888,67.09408 229.24928,153.74528 C211.58128,155.09728 201.29928,128.07528 176.84168,70.68528" id="Fill-16" fill="#744C32" mask="url(#mask-4)"></path>
            <path d="M209.62564,350.35364 L53.95084,350.35364 C53.95084,309.70364 86.90404,276.75004 127.55404,276.75004 L136.02204,276.75004 C176.67204,276.75004 209.62564,309.70364 209.62564,350.35364" id="Fill-17" fill="#FFBBBA" mask="url(#mask-4)"></path>
            <path d="M168.11316,283.7466 C162.48556,297.0306 149.34916,306.3502 134.01396,306.3502 C118.03116,306.3502 104.59636,296.2274 99.40356,282.0434 C72.48076,293.161 53.71596,319.7486 53.71596,350.6866 L53.71596,350.9462 L210.11596,350.9462 L210.11596,350.6866 C210.11596,321.2346 192.98956,295.7134 168.11316,283.7466" id="Fill-18" fill="#E2869B" mask="url(#mask-4)"></path>
            <path d="M83.7679308,102.904244 C89.0088561,98.6012967 96.0300336,96.5734961 102.758195,97.4196304 C103.854132,97.5574556 104.630835,98.5576175 104.49301,99.6535546 C104.355184,100.749492 103.355022,101.526195 102.259085,101.38837 C96.6208668,100.679306 90.6980398,102.38989 86.3061492,105.995756 C85.4524517,106.696666 84.1921936,106.572807 83.491284,105.719109 C82.7903743,104.865412 82.9142333,103.605154 83.7679308,102.904244 Z" id="Stroke-20" fill="#3C2E23" fill-rule="nonzero" mask="url(#mask-4)"></path>
            <path d="M112.21608,151.47376 C112.21608,156.70616 107.97448,160.94816 102.74208,160.94816 C97.50968,160.94816 93.26808,156.70616 93.26808,151.47376 C93.26808,146.24136 97.50968,141.99976 102.74208,141.99976 C107.97448,141.99976 112.21608,146.24136 112.21608,151.47376" id="Fill-12" fill="#000000" mask="url(#mask-4)"></path>
            <path d="M151.839602,124.838168 C152.554585,123.996223 153.816726,123.893299 154.658672,124.608282 L154.823855,124.746677 L155.152677,125.010443 C157.067069,126.498654 158.942539,127.107111 162.168417,126.974032 L162.734912,126.943981 C162.831619,126.93777 162.929493,126.93096 163.028567,126.923555 L163.637664,126.872002 L164.277106,126.806307 C164.386295,126.794188 164.496813,126.781486 164.608693,126.768205 L165.29657,126.681589 C165.414026,126.666002 165.532908,126.649842 165.653249,126.633113 L166.776581,126.467248 L167.983939,126.271132 L169.280572,126.045287 C169.429797,126.018561 169.580772,125.991294 169.733529,125.963489 C170.820244,125.765688 171.86155,126.486295 172.059351,127.573009 C172.257152,128.659724 171.536545,129.70103 170.449831,129.898831 L169.477049,130.072515 L168.543024,130.232029 L167.646318,130.377101 L166.785492,130.507458 C166.644931,130.527943 166.505805,130.547804 166.368085,130.567034 L165.558383,130.674809 L164.780967,130.767188 C164.654008,130.781287 164.528334,130.794732 164.403916,130.807519 L163.672231,130.876294 C163.552715,130.886425 163.434393,130.895885 163.317237,130.90467 L162.628048,130.949228 C157.898267,131.203751 155.118649,130.246595 152.069488,127.657238 C151.227543,126.942255 151.124619,125.680114 151.839602,124.838168 Z" id="Stroke-15" fill="#564334" fill-rule="nonzero" mask="url(#mask-4)"></path>
            <path d="M167.194873,142.225137 C168.182283,141.730065 169.384072,142.129184 169.879143,143.116593 C170.35064,144.056983 170.01108,145.191822 169.12471,145.725431 L168.987687,145.800863 L158.687,150.965 L168.643213,153.823865 C169.656631,154.114834 170.261736,155.13741 170.049533,156.153153 L170.013615,156.298133 C169.722646,157.311551 168.70007,157.916656 167.684327,157.704453 L167.539347,157.668535 L152.658947,153.396135 C150.961078,152.908649 150.700885,150.64559 152.171521,149.764403 L152.314473,149.685937 L167.194873,142.225137 Z" id="Stroke-19" fill="#000000" fill-rule="nonzero" mask="url(#mask-4)"></path>
        </g>
    </g>
</svg>