<svg height="512" node-id="1" sillyvg="true" template-height="512" template-width="512" version="1.1" viewBox="0 0 512 512" width="512" xmlns="http://www.w3.org/2000/svg" xmlns:xlink="http://www.w3.org/1999/xlink"><defs node-id="36"><mask height="75.7392" id="mask-2" maskUnits="userSpaceOnUse" node-id="11" width="57.618225" x="225.97888" y="377.52002"><path d="M 122.00 511.16 L 390.06 511.16 L 390.06 175.40 L 122.00 175.40 Z" fill="#ffffff" fill-rule="evenodd" node-id="41" stroke="none" target-height="335.75598" target-width="268.064" target-x="122" target-y="175.40001"/></mask><mask height="43.41797" id="mask1" maskUnits="userSpaceOnUse" node-id="45" width="57.618225" x="225.97888" y="380.00385"><path d="M 122.00 511.16 L 390.06 511.16 L 390.06 175.40 L 122.00 175.40 Z" fill="#ffffff" fill-rule="evenodd" node-id="49" stroke="none" target-height="335.75598" target-width="268.064" target-x="122" target-y="175.40001"/></mask><mask height="70.52402" id="mask2" maskUnits="userSpaceOnUse" node-id="53" width="60.311516" x="116.97428" y="303.34088"><path d="M 122.00 511.16 L 390.06 511.16 L 390.06 175.40 L 122.00 175.40 Z" fill="#ffffff" fill-rule="evenodd" node-id="57" stroke="none" target-height="335.75598" target-width="268.064" target-x="122" target-y="175.40001"/></mask><mask height="70.52402" id="mask3" maskUnits="userSpaceOnUse" node-id="61" width="60.31198" x="334.77814" y="303.34088"><path d="M 122.00 511.16 L 390.06 511.16 L 390.06 175.40 L 122.00 175.40 Z" fill="#ffffff" fill-rule="evenodd" node-id="65" stroke="none" target-height="335.75598" target-width="268.064" target-x="122" target-y="175.40001"/></mask><mask height="261" id="mask4" maskUnits="userSpaceOnUse" node-id="69" width="232.66702" x="139.52353" y="171.64912"><path d="M 122.00 511.16 L 390.06 511.16 L 390.06 175.40 L 122.00 175.40 Z" fill="#ffffff" fill-rule="evenodd" node-id="73" stroke="none" target-height="335.75598" target-width="268.064" target-x="122" target-y="175.40001"/></mask><mask height="242.15297" id="mask5" maskUnits="userSpaceOnUse" node-id="77" width="232.66702" x="139.52353" y="181.92558"><path d="M 122.00 511.16 L 390.06 511.16 L 390.06 175.40 L 122.00 175.40 Z" fill="#ffffff" fill-rule="evenodd" node-id="81" stroke="none" target-height="335.75598" target-width="268.064" target-x="122" target-y="175.40001"/></mask><mask height="16.169281" id="mask6" maskUnits="userSpaceOnUse" node-id="85" width="27.537598" x="210.97324" y="302.46173"><path d="M 122.00 511.16 L 390.06 511.16 L 390.06 175.40 L 122.00 175.40 Z" fill="#ffffff" fill-rule="evenodd" node-id="89" stroke="none" target-height="335.75598" target-width="268.064" target-x="122" target-y="175.40001"/></mask><mask height="16.169281" id="mask7" maskUnits="userSpaceOnUse" node-id="93" width="27.537598" x="273.20294" y="302.46173"><path d="M 122.00 511.16 L 390.06 511.16 L 390.06 175.40 L 122.00 175.40 Z" fill="#ffffff" fill-rule="evenodd" node-id="97" stroke="none" target-height="335.75598" target-width="268.064" target-x="122" target-y="175.40001"/></mask><mask height="12.774719" id="mask8" maskUnits="userSpaceOnUse" node-id="101" width="18.349915" x="246.46252" y="325.64563"><path d="M 122.00 511.16 L 390.06 511.16 L 390.06 175.40 L 122.00 175.40 Z" fill="#ffffff" fill-rule="evenodd" node-id="105" stroke="none" target-height="335.75598" target-width="268.064" target-x="122" target-y="175.40001"/></mask><mask height="88.32428" id="mask9" maskUnits="userSpaceOnUse" node-id="109" width="186.80975" x="160.38321" y="429.5993"><path d="M 122.00 511.16 L 390.06 511.16 L 390.06 175.40 L 122.00 175.40 Z" fill="#ffffff" fill-rule="evenodd" node-id="113" stroke="none" target-height="335.75598" target-width="268.064" target-x="122" target-y="175.40001"/></mask><mask height="82.68338" id="mask10" maskUnits="userSpaceOnUse" node-id="117" width="187.67998" x="160.07576" y="435.3627"><path d="M 122.00 511.16 L 390.06 511.16 L 390.06 175.40 L 122.00 175.40 Z" fill="#ffffff" fill-rule="evenodd" node-id="121" stroke="none" target-height="335.75598" target-width="268.064" target-x="122" target-y="175.40001"/></mask></defs><path d="M 0.00 0.00 L 512.00 0.00 L 512.00 512.00 L 0.00 512.00 Z" fill="#fec9d1" fill-rule="evenodd" id="矩形" node-id="7" stroke="none" target-height="512" target-width="512" target-x="0" target-y="0"/><g transform="translate(0, -75)"><g node-id="123"><g node-id="125"><path d="M 362.13 342.56 L 147.13 342.56 L 147.13 273.90 C 147.13 219.50 191.23 175.40 245.63 175.40 L 263.63 175.40 C 318.03 175.40 362.13 219.50 362.13 273.90 L 362.13 342.56 Z" fill="#515271" fill-rule="evenodd" group-id="1,3" id="Fill-1" node-id="10" stroke="none" target-height="167.15558" target-width="214.99559" target-x="147.13023" target-y="175.4002"/><g node-id="128"><path d="M 230.78 446.95 L 278.80 446.95 L 278.80 383.83 L 230.78 383.83 Z" fill="#ffbbba" fill-rule="evenodd" group-id="1,3,6" id="Fill-3" node-id="14" stroke="none" target-height="63.115997" target-width="48.015198" target-x="230.7804" target-y="383.8316"/></g><g node-id="129"><path d="M 230.78 416.62 C 239.61 418.74 247.61 419.80 254.79 419.80 C 261.97 419.80 269.97 418.74 278.80 416.62 L 278.80 383.62 L 230.78 383.62 L 230.78 416.62 Z" fill="#fb918d" fill-rule="evenodd" group-id="1,3,7" id="Fill-3" node-id="15" stroke="none" target-height="36.18164" target-width="48.015198" target-x="230.7804" target-y="383.622"/></g><g node-id="130"><path d="M 172.26 338.60 C 172.26 354.83 161.01 367.99 147.13 367.99 C 133.25 367.99 122.00 354.83 122.00 338.60 C 122.00 322.37 133.25 309.22 147.13 309.22 C 161.01 309.22 172.26 322.37 172.26 338.60" fill="#ffbbba" fill-rule="evenodd" group-id="1,3,8" id="Fill-5" node-id="16" stroke="none" target-height="58.76999" target-width="50.259605" target-x="122.00024" target-y="309.2179"/></g><g node-id="131"><path d="M 390.06 338.60 C 390.06 354.83 378.81 367.99 364.93 367.99 C 351.06 367.99 339.80 354.83 339.80 338.60 C 339.80 322.37 351.06 309.22 364.93 309.22 C 378.81 309.22 390.06 322.37 390.06 338.60" fill="#ffbbba" fill-rule="evenodd" group-id="1,3,9" id="Fill-7" node-id="17" stroke="none" target-height="58.76999" target-width="50.25998" target-x="339.80414" target-y="309.2179"/></g><g node-id="132"><path d="M 255.86 410.90 C 229.37 410.90 158.91 386.64 158.91 333.10 C 158.91 279.56 161.02 193.40 255.86 193.40 C 350.69 193.40 352.80 279.56 352.80 333.10 C 352.80 386.64 282.34 410.90 255.86 410.90 Z" fill="#ffbbba" fill-rule="evenodd" group-id="1,3,10" id="Fill-9" node-id="18" stroke="none" target-height="217.49998" target-width="193.88919" target-x="158.91245" target-y="193.39912"/></g><g node-id="133"><path d="M 255.86 403.90 C 229.37 403.90 158.91 379.64 158.91 326.10 C 158.91 272.56 160.01 202.10 254.85 202.10 C 349.69 202.10 352.80 272.56 352.80 326.10 C 352.80 379.64 282.34 403.90 255.86 403.90 Z" fill="#ffd5d6" fill-rule="evenodd" group-id="1,3,11" id="Fill-9" node-id="19" stroke="none" target-height="201.79414" target-width="193.88919" target-x="158.91245" target-y="202.105"/></g><g node-id="134"><path d="M 224.74 303.81 C 231.08 303.81 236.22 308.95 236.22 315.28 C 236.22 316.39 235.32 317.28 234.22 317.28 C 233.11 317.28 232.22 316.39 232.22 315.28 C 232.22 311.16 228.87 307.81 224.74 307.81 C 220.61 307.81 217.27 311.16 217.27 315.28 C 217.27 316.39 216.37 317.28 215.27 317.28 C 214.16 317.28 213.27 316.39 213.27 315.28 C 213.27 308.95 218.41 303.81 224.74 303.81 Z" fill="#000000" fill-rule="nonzero" group-id="1,3,12" id="Stroke-12" node-id="20" stroke="none" target-height="13.474426" target-width="22.947998" target-x="213.26804" target-y="303.80914"/></g><g node-id="135"><path d="M 286.97 303.81 C 293.31 303.81 298.45 308.95 298.45 315.28 C 298.45 316.39 297.55 317.28 296.45 317.28 C 295.34 317.28 294.45 316.39 294.45 315.28 C 294.45 311.16 291.10 307.81 286.97 307.81 C 282.84 307.81 279.50 311.16 279.50 315.28 C 279.50 316.39 278.60 317.28 277.50 317.28 C 276.39 317.28 275.50 316.39 275.50 315.28 C 275.50 308.95 280.63 303.81 286.97 303.81 Z" fill="#000000" fill-rule="nonzero" group-id="1,3,13" id="Stroke-13" node-id="21" stroke="none" target-height="13.474426" target-width="22.947998" target-x="275.49774" target-y="303.80914"/></g><g node-id="136"><path d="M 263.28 334.36 C 263.28 338.36 247.99 338.36 247.99 334.36 C 247.99 329.96 251.41 326.71 255.64 326.71 C 259.86 326.71 263.28 329.96 263.28 334.36" fill="#e8b39f" fill-rule="evenodd" group-id="1,3,14" id="Fill-14" node-id="22" stroke="none" target-height="11.645599" target-width="15.291595" target-x="247.99167" target-y="326.7102"/></g><g node-id="137"><path d="M 331.63 510.56 L 175.95 510.56 C 175.95 469.91 208.90 436.96 249.55 436.96 L 258.02 436.96 C 298.67 436.96 331.63 469.91 331.63 510.56" fill="#ffbbba" fill-rule="evenodd" group-id="1,3,15" id="Fill-15" node-id="23" stroke="none" target-height="73.60358" target-width="155.6748" target-x="175.95068" target-y="436.95966"/></g><path d="M 290.11 443.96 C 284.49 457.24 271.35 466.56 256.01 466.56 C 240.03 466.56 226.60 456.44 221.40 442.25 C 194.48 453.37 175.72 479.96 175.72 510.90 L 175.72 511.16 L 332.12 511.16 L 332.12 510.90 C 332.12 481.44 314.99 455.92 290.11 443.96" fill="#fee9e6" fill-rule="evenodd" group-id="1,3,16" id="Fill-16" node-id="24" stroke="none" target-height="68.9028" target-width="156.4" target-x="175.71576" target-y="442.253"/></g><g node-id="126"><path d="M 209.23 276.56 C 209.74 274.41 211.89 273.08 214.04 273.58 L 231.54 277.62 C 233.69 278.12 235.03 280.27 234.52 282.42 C 234.02 284.58 231.87 285.91 229.72 285.41 L 212.87 281.53 L 212.21 281.37 C 210.06 280.87 208.73 278.71 209.23 276.56 Z" fill="#614536" fill-rule="nonzero" group-id="1,4" id="Stroke-20" node-id="26" stroke="none" target-height="12.831818" target-width="26.298233" target-x="208.7285" target-y="273.0788"/><path d="M 302.73 276.53 C 303.25 278.67 301.94 280.84 299.79 281.36 L 298.49 281.67 L 283.52 285.11 L 282.27 285.40 C 280.13 285.92 277.97 284.59 277.45 282.45 C 276.94 280.30 278.26 278.14 280.41 277.62 L 285.98 276.33 L 297.11 273.78 L 297.89 273.59 C 300.03 273.07 302.20 274.38 302.73 276.53 Z" fill="#614536" fill-rule="nonzero" group-id="1,4" id="Stroke-22" node-id="27" stroke="none" target-height="12.850311" target-width="26.316711" target-x="276.9359" target-y="273.06696"/><path d="M 332.63 219.00 C 332.63 232.58 320.65 235.76 255.28 235.76 C 189.92 235.76 177.94 232.58 177.94 219.00 C 177.94 205.41 212.56 194.40 255.28 194.40 C 298.00 194.40 332.63 205.41 332.63 219.00" fill="#ffbbba" fill-rule="evenodd" group-id="1,4" id="Fill-24" node-id="28" stroke="none" target-height="41.3564" target-width="154.6904" target-x="177.93509" target-y="194.39961"/><path d="M 332.63 212.00 C 332.63 225.58 320.65 228.76 255.28 228.76 C 189.92 228.76 177.94 225.58 177.94 212.00 C 177.94 198.41 212.56 187.40 255.28 187.40 C 298.00 187.40 332.63 198.41 332.63 212.00" fill="#515271" fill-rule="evenodd" group-id="1,4" id="Fill-24" node-id="29" stroke="none" target-height="41.3564" target-width="154.6904" target-x="177.93509" target-y="187.39961"/><path d="M 166.00 227.50 C 168.40 222.69 171.12 217.91 175.15 214.36 C 179.19 210.82 188.79 209.07 194.01 210.32 C 158.91 274.36 173.65 325.56 158.95 323.95 C 154.35 322.51 146.36 313.98 147.13 309.22 C 151.62 281.51 153.81 252.03 166.00 227.50" fill="#515271" fill-rule="evenodd" group-id="1,4" id="Fill-26" node-id="30" stroke="none" target-height="116.4888" target-width="47.651596" target-x="146.36" target-y="209.06705"/><path d="M 343.20 227.50 C 340.81 222.69 338.09 217.91 334.05 214.36 C 330.01 210.82 320.42 209.07 315.19 210.32 C 350.29 274.36 335.55 325.56 350.26 323.95 C 354.85 322.51 362.84 313.98 362.07 309.22 C 357.59 281.51 355.40 252.03 343.20 227.50" fill="#515271" fill-rule="evenodd" group-id="1,4" id="Fill-28" node-id="31" stroke="none" target-height="116.4888" target-width="47.652008" target-x="315.19205" target-y="209.06705"/></g></g><g node-id="124"><path d="M 229.24 351.15 L 282.13 351.15 C 279.86 367.72 271.15 376.00 256.00 376.00 C 240.84 376.00 231.93 367.72 229.24 351.15 Z" fill="#ffbbba" fill-rule="evenodd" group-id="2" id="路径-8备份" node-id="33" stroke="none" target-height="24.85257" target-width="52.882736" target-x="229.24382" target-y="351.14743"/><path d="M 231.99 348.00 L 279.18 348.00 C 280.84 348.00 282.18 349.34 282.18 351.00 C 282.18 351.29 282.14 351.58 282.06 351.86 C 278.44 363.95 269.75 370.00 256.00 370.00 C 242.29 370.00 233.34 364.00 229.16 351.99 C 228.62 350.42 229.44 348.71 231.01 348.17 C 231.32 348.06 231.66 348.00 231.99 348.00 Z" fill="#ffffff" fill-rule="evenodd" group-id="2" id="路径-8备份" node-id="34" stroke="none" target-height="22" target-width="53.567917" target-x="228.61552" target-y="348"/></g></g></svg>