<?xml version="1.0" encoding="UTF-8"?>
<svg width="512px" height="512px" viewBox="0 0 512 512" version="1.1" xmlns="http://www.w3.org/2000/svg" xmlns:xlink="http://www.w3.org/1999/xlink">
    <title>女生-蓝</title>
    <defs>
        <polygon id="path-1" points="0 405.364 268.064 405.364 268.064 0.3984 0 0.3984"></polygon>
    </defs>
    <g id="女生-蓝" stroke="none" stroke-width="1" fill="none" fill-rule="evenodd">
        <rect id="矩形" fill="#C3ECFE" x="0" y="0" width="512" height="512"></rect>
        <g id="编组" transform="translate(122.000000, 55.000000)">
            <path d="M252.02076,174.65724 C252.02076,240.58164 198.57836,294.02404 132.65396,294.02404 C66.72916,294.02404 13.28716,240.58164 13.28716,174.65724 C13.28716,108.73284 66.72916,55.29044 132.65396,55.29044 C198.57836,55.29044 252.02076,108.73284 252.02076,174.65724" id="Fill-1" fill="#1F448B"></path>
            <mask id="mask-2" fill="white">
                <use xlink:href="#path-1"></use>
            </mask>
            <g id="Clip-4"></g>
            <polygon id="Fill-3" fill="#FFBBBA" mask="url(#mask-2)" points="108.7804 341.1556 156.7956 341.1556 156.7956 278.04 108.7804 278.04"></polygon>
            <path d="M108.7804,309.622 C117.607842,311.743102 125.610376,312.803652 132.788,312.803652 C139.965624,312.803652 147.968158,311.743102 156.7956,309.622 L156.7956,276.622 L108.7804,276.622 L108.7804,309.622 Z" id="Fill-3" fill="#FB918D" mask="url(#mask-2)"></path>
            <path d="M50.25984,232.81096 C50.25984,249.03976 39.00904,262.19576 25.13024,262.19576 C11.25144,262.19576 0.00024,249.03976 0.00024,232.81096 C0.00024,216.58216 11.25144,203.42576 25.13024,203.42576 C39.00904,203.42576 50.25984,216.58216 50.25984,232.81096" id="Fill-5" fill="#FFBBBA" mask="url(#mask-2)"></path>
            <path d="M268.06412,232.81096 C268.06412,249.03976 256.81292,262.19576 242.93412,262.19576 C229.05532,262.19576 217.80412,249.03976 217.80412,232.81096 C217.80412,216.58216 229.05532,203.42576 242.93412,203.42576 C256.81292,203.42576 268.06412,216.58216 268.06412,232.81096" id="Fill-7" fill="#FFBBBA" mask="url(#mask-2)"></path>
            <path d="M133.85724,305.10716 C108.3734,305.10716 36.91244,280.85156 36.91244,227.31036 C36.91244,173.76916 80.31604,111.21836 133.85724,111.21836 C187.39804,111.21836 230.80164,173.76916 230.80164,227.31036 C230.80164,280.85156 159.34108,305.10716 133.85724,305.10716 Z" id="Fill-9" fill="#FFBBBA" mask="url(#mask-2)"></path>
            <path d="M133.85724,298.10716 C108.3734,298.10716 36.91244,273.85156 36.91244,220.31036 C36.91244,188.363379 52.3653116,153.208733 76.2042069,130.048325 C92.3178524,114.393296 111.921461,122.889069 133.51568,122.889069 C158.798006,122.889069 182.161508,118.165887 199.42037,138.526184 C218.710884,161.283225 230.80164,192.051675 230.80164,220.31036 C230.80164,273.85156 159.34108,298.10716 133.85724,298.10716 Z" id="Fill-9" fill="#FFD5D6" mask="url(#mask-2)"></path>
            <path d="M113.73092,205.89144 C113.73092,211.12384 109.48932,215.36544 104.25692,215.36544 C99.02452,215.36544 94.78292,211.12384 94.78292,205.89144 C94.78292,200.65904 99.02452,196.41744 104.25692,196.41744 C109.48932,196.41744 113.73092,200.65904 113.73092,205.89144" id="Fill-12" fill="#000000" mask="url(#mask-2)"></path>
            <path d="M172.93092,205.89144 C172.93092,211.12384 168.68932,215.36544 163.45692,215.36544 C158.22452,215.36544 153.98292,211.12384 153.98292,205.89144 C153.98292,200.65904 158.22452,196.41744 163.45692,196.41744 C168.68932,196.41744 172.93092,200.65904 172.93092,205.89144" id="Fill-13" fill="#000000" mask="url(#mask-2)"></path>
            <path d="M141.28328,228.56408 C141.28328,232.56408 125.99168,232.56408 125.99168,228.56408 C125.99168,224.16408 129.41488,220.91808 133.63768,220.91808 C137.86008,220.91808 141.28328,224.16408 141.28328,228.56408" id="Fill-14" fill="#E8B39F" mask="url(#mask-2)"></path>
            <path d="M151.571753,241.547578 C152.204595,240.642269 153.451513,240.421391 154.356822,241.054233 C155.262131,241.687075 155.483009,242.933993 154.850167,243.839302 C148.972795,252.247148 139.827141,255.822508 130.115593,254.532424 C129.020642,254.38697 128.250923,253.381424 128.396376,252.286473 C128.54183,251.191522 129.547376,250.421803 130.642327,250.567256 C138.931424,251.668382 146.589833,248.674439 151.571753,241.547578 Z" id="Stroke-15" fill="#D06946" fill-rule="nonzero" mask="url(#mask-2)"></path>
            <path d="M209.62548,404.77132 L53.95068,404.77132 C53.95068,364.12092 86.90388,331.16772 127.55428,331.16772 L136.02188,331.16772 C176.67228,331.16772 209.62548,364.12092 209.62548,404.77132" id="Fill-18" fill="#FFBBBA" mask="url(#mask-2)"></path>
            <path d="M168.11336,338.16408 C162.48536,351.44808 149.34936,360.76768 134.01376,360.76768 C118.03096,360.76768 104.59656,350.64528 99.40376,336.46128 C72.48096,347.57848 53.71576,374.16608 53.71576,405.10368 L53.71576,405.36408 L210.11576,405.36408 L210.11576,405.10368 C210.11576,375.65208 192.98976,350.13088 168.11336,338.16408" id="Fill-19" fill="#FEE9E6" mask="url(#mask-2)"></path>
            <path d="M172.46804,40.47288 C172.46804,62.60528 154.52644,80.54728 132.39364,80.54728 C110.26084,80.54728 92.31924,62.60528 92.31924,40.47288 C92.31924,18.34048 110.26084,0.39848 132.39364,0.39848 C154.52644,0.39848 172.46804,18.34048 172.46804,40.47288" id="Fill-22" fill="#1F448B" mask="url(#mask-2)"></path>
            <path d="M68.80632,113.36408 C46.45552,113.36408 50.31552,131.64968 50.31552,154.00088 L50.31552,172.56408 L87.73872,172.56408 L96.87792,144.16408 L91.75992,172.56408 L217.31552,172.56408 L217.31552,154.00088 C217.31552,131.64968 214.20712,113.36408 191.85632,113.36408 L68.80632,113.36408 Z" id="Fill-23" fill="#FFBBBA" mask="url(#mask-2)"></path>
            <path d="M91.1278,175.72032 C96.4038,173.53632 102.4346,172.14632 108.6282,171.68632" id="Stroke-16" stroke="#775B45" stroke-width="4" stroke-linecap="round" mask="url(#mask-2)"></path>
            <path d="M176.84148,175.72032 C171.56548,173.53632 165.53468,172.14632 159.34108,171.68632" id="Stroke-17" stroke="#775B45" stroke-width="4" stroke-linecap="round" mask="url(#mask-2)"></path>
            <path d="M195.85632,107.36408 L72.80632,107.36408 C50.45552,107.36408 32.31552,125.64968 32.31552,148.00088 L32.31552,166.56408 L86.73872,166.56408 L99.87792,132.16408 L95.75992,166.56408 L236.31552,166.56408 L236.31552,148.00088 C236.31552,125.64968 218.20712,107.36408 195.85632,107.36408" id="Fill-23" fill="#1F448B" mask="url(#mask-2)"></path>
            <g id="眼睛" mask="url(#mask-2)">
                <g transform="translate(40.786080, 179.106680)">
                    <path d="M42.0064,0.4 C17.9230802,0.4 -1.6,19.9232086 -1.6,44.0068 C-1.6,68.0903914 17.9230802,87.6136 42.0064,87.6136 C66.0901272,87.6136 85.6136,68.090384 85.6136,44.0068 C85.6136,19.923216 66.0901272,0.4 42.0064,0.4 Z M42.0064,3.6 C64.3228254,3.6 82.4136,21.6905366 82.4136,44.0068 C82.4136,66.3230634 64.3228254,84.4136 42.0064,84.4136 C19.6903961,84.4136 1.6,66.3230849 1.6,44.0068 C1.6,21.6905151 19.6903961,3.6 42.0064,3.6 Z" id="Stroke-24" stroke="none" fill="#FFBBBA" fill-rule="nonzero"></path>
                    <path d="M143.2064,0.4 C119.12308,0.4 99.6,19.9232086 99.6,44.0068 C99.6,68.0903914 119.12308,87.6136 143.2064,87.6136 C167.290127,87.6136 186.8136,68.090384 186.8136,44.0068 C186.8136,19.923216 167.290127,0.4 143.2064,0.4 Z M143.2064,3.6 C165.522825,3.6 183.6136,21.6905366 183.6136,44.0068 C183.6136,66.3230634 165.522825,84.4136 143.2064,84.4136 C120.890396,84.4136 102.8,66.3230849 102.8,44.0068 C102.8,21.6905151 120.890396,3.6 143.2064,3.6 Z" id="Stroke-25" stroke="none" fill="#FFBBBA" fill-rule="nonzero"></path>
                    <line x1="81.5296" y1="36.8574" x2="103.9296" y2="36.8574" id="Stroke-26" stroke="#FFBBBA" stroke-width="3.2" fill="none" stroke-linecap="round"></line>
                </g>
            </g>
            <path d="M38.59264,271.23068 L38.59264,271.23068 C35.13744,271.23068 32.33624,268.42948 32.33624,264.97428 L32.33624,162.43068 L44.84944,162.43068 L44.84944,264.97428 C44.84944,268.42948 42.04824,271.23068 38.59264,271.23068" id="Fill-20" fill="#1F448B" mask="url(#mask-2)"></path>
            <path d="M230.0696,271.23068 L230.0696,271.23068 C226.6144,271.23068 223.8132,268.42948 223.8132,264.97428 L223.8132,162.43068 L236.3264,162.43068 L236.3264,264.97428 C236.3264,268.42948 233.5252,271.23068 230.0696,271.23068" id="Fill-21" fill="#1F448B" mask="url(#mask-2)"></path>
            <g id="眼睛" mask="url(#mask-2)">
                <g transform="translate(40.786080, 174.106680)">
                    <path d="M42.0064,0.4 C17.9230802,0.4 -1.6,19.9232086 -1.6,44.0068 C-1.6,68.0903914 17.9230802,87.6136 42.0064,87.6136 C66.0901272,87.6136 85.6136,68.090384 85.6136,44.0068 C85.6136,19.923216 66.0901272,0.4 42.0064,0.4 Z M42.0064,3.6 C64.3228254,3.6 82.4136,21.6905366 82.4136,44.0068 C82.4136,66.3230634 64.3228254,84.4136 42.0064,84.4136 C19.6903961,84.4136 1.6,66.3230849 1.6,44.0068 C1.6,21.6905151 19.6903961,3.6 42.0064,3.6 Z" id="Stroke-24" stroke="none" fill="#FFFFFF" fill-rule="nonzero"></path>
                    <path d="M143.2064,0.4 C119.12308,0.4 99.6,19.9232086 99.6,44.0068 C99.6,68.0903914 119.12308,87.6136 143.2064,87.6136 C167.290127,87.6136 186.8136,68.090384 186.8136,44.0068 C186.8136,19.923216 167.290127,0.4 143.2064,0.4 Z M143.2064,3.6 C165.522825,3.6 183.6136,21.6905366 183.6136,44.0068 C183.6136,66.3230634 165.522825,84.4136 143.2064,84.4136 C120.890396,84.4136 102.8,66.3230849 102.8,44.0068 C102.8,21.6905151 120.890396,3.6 143.2064,3.6 Z" id="Stroke-25" stroke="none" fill="#FFFFFF" fill-rule="nonzero"></path>
                    <line x1="81.5296" y1="36.8574" x2="103.9296" y2="36.8574" id="Stroke-26" stroke="#FFFFFF" stroke-width="3.2" fill="none" stroke-linecap="round"></line>
                </g>
            </g>
        </g>
    </g>
</svg>