<svg height="512" node-id="1" sillyvg="true" template-height="512" template-width="512" version="1.1" viewBox="0 0 512 512" width="512" xmlns="http://www.w3.org/2000/svg" xmlns:xlink="http://www.w3.org/1999/xlink"><defs node-id="35"><mask height="75.7392" id="mask-2" maskUnits="userSpaceOnUse" node-id="10" width="57.618225" x="225.97888" y="378.5464"><path d="M 122.00 512.18 L 390.06 512.18 L 390.06 151.00 L 122.00 151.00 Z" fill="#ffffff" fill-rule="evenodd" node-id="40" stroke="none" target-height="361.18237" target-width="268.064" target-x="122" target-y="151"/></mask><mask height="80.25156" id="mask1" maskUnits="userSpaceOnUse" node-id="44" width="57.618225" x="225.77289" y="345.93436"><path d="M 122.00 512.18 L 390.06 512.18 L 390.06 151.00 L 122.00 151.00 Z" fill="#ffffff" fill-rule="evenodd" node-id="48" stroke="none" target-height="361.18237" target-width="268.064" target-x="122" target-y="151"/></mask><mask height="70.52402" id="mask2" maskUnits="userSpaceOnUse" node-id="52" width="60.312004" x="116.97404" y="304.36728"><path d="M 122.00 512.18 L 390.06 512.18 L 390.06 151.00 L 122.00 151.00 Z" fill="#ffffff" fill-rule="evenodd" node-id="56" stroke="none" target-height="361.18237" target-width="268.064" target-x="122" target-y="151"/></mask><mask height="70.52402" id="mask3" maskUnits="userSpaceOnUse" node-id="60" width="60.31198" x="334.77814" y="304.36728"><path d="M 122.00 512.18 L 390.06 512.18 L 390.06 151.00 L 122.00 151.00 Z" fill="#ffffff" fill-rule="evenodd" node-id="64" stroke="none" target-height="361.18237" target-width="268.064" target-x="122" target-y="151"/></mask><mask height="261" id="mask4" maskUnits="userSpaceOnUse" node-id="68" width="232.66705" x="139.52332" y="172.67552"><path d="M 122.00 512.18 L 390.06 512.18 L 390.06 151.00 L 122.00 151.00 Z" fill="#ffffff" fill-rule="evenodd" node-id="72" stroke="none" target-height="361.18237" target-width="268.064" target-x="122" target-y="151"/></mask><mask height="261.00003" id="mask5" maskUnits="userSpaceOnUse" node-id="76" width="232.66705" x="139.52332" y="165.6755"><path d="M 122.00 512.18 L 390.06 512.18 L 390.06 151.00 L 122.00 151.00 Z" fill="#ffffff" fill-rule="evenodd" node-id="80" stroke="none" target-height="361.18237" target-width="268.064" target-x="122" target-y="151"/></mask><mask height="277.98633" id="mask6" maskUnits="userSpaceOnUse" node-id="84" width="281.05276" x="-211.2825" y="1445.1757"><path d="M -296.91 1540.09 L -187.88 1784.98 L 142.08 1638.07 L 33.05 1393.18 Z" fill="#ffffff" fill-rule="evenodd" node-id="88" stroke="none" target-height="391.7948" target-width="438.98798" target-x="-296.9084" target-y="1393.1843"/></mask><mask height="88.32431" id="mask7" maskUnits="userSpaceOnUse" node-id="92" width="186.80975" x="160.38336" y="430.6257"><path d="M 122.00 512.18 L 390.06 512.18 L 390.06 151.00 L 122.00 151.00 Z" fill="#ffffff" fill-rule="evenodd" node-id="96" stroke="none" target-height="361.18237" target-width="268.064" target-x="122" target-y="151"/></mask><mask height="82.68335" id="mask8" maskUnits="userSpaceOnUse" node-id="100" width="187.68002" x="160.07596" y="436.3891"><path d="M 122.00 512.18 L 390.06 512.18 L 390.06 151.00 L 122.00 151.00 Z" fill="#ffffff" fill-rule="evenodd" node-id="104" stroke="none" target-height="361.18237" target-width="268.064" target-x="122" target-y="151"/></mask><mask height="147.64221" id="mask9" maskUnits="userSpaceOnUse" node-id="108" width="238.26202" x="138.52252" y="163.35486"><path d="M 122.00 512.18 L 390.06 512.18 L 390.06 151.00 L 122.00 151.00 Z" fill="#ffffff" fill-rule="evenodd" node-id="112" stroke="none" target-height="361.18237" target-width="268.064" target-x="122" target-y="151"/></mask><mask height="177.23233" id="mask10" maskUnits="userSpaceOnUse" node-id="116" width="278.62225" x="116.494644" y="136.23056"><path d="M 122.00 512.18 L 390.06 512.18 L 390.06 151.00 L 122.00 151.00 Z" fill="#ffffff" fill-rule="evenodd" node-id="120" stroke="none" target-height="361.18237" target-width="268.064" target-x="122" target-y="151"/></mask><mask height="56.880005" id="mask11" maskUnits="userSpaceOnUse" node-id="124" width="22.252808" x="151.86163" y="265.0422"><path d="M 122.00 512.18 L 390.06 512.18 L 390.06 151.00 L 122.00 151.00 Z" fill="#ffffff" fill-rule="evenodd" node-id="128" stroke="none" target-height="361.18237" target-width="268.064" target-x="122" target-y="151"/></mask><mask height="103.44" id="mask12" maskUnits="userSpaceOnUse" node-id="132" width="25.663208" x="329.77728" y="222.7622"><path d="M 122.00 512.18 L 390.06 512.18 L 390.06 151.00 L 122.00 151.00 Z" fill="#ffffff" fill-rule="evenodd" node-id="136" stroke="none" target-height="361.18237" target-width="268.064" target-x="122" target-y="151"/></mask></defs><path d="M 0.00 0.00 L 512.00 0.00 L 512.00 514.00 L 0.00 514.00 Z" fill="#c4fffd" fill-rule="evenodd" id="矩形" node-id="7" stroke="none" target-height="514" target-width="512" target-x="0" target-y="0"/><g transform="translate(0, -75)"><g node-id="138"><path d="M 361.37 295.39 C 361.37 354.37 314.77 402.19 257.29 402.19 C 199.82 402.19 153.22 354.37 153.22 295.39 C 153.22 236.41 199.82 188.60 257.29 188.60 C 314.77 188.60 361.37 236.41 361.37 295.39" fill="#025483" fill-rule="evenodd" group-id="1" id="Fill-1" node-id="9" stroke="none" target-height="213.5892" target-width="208.14636" target-x="153.22089" target-y="188.59912"/><g node-id="141"><path d="M 230.78 447.97 L 278.80 447.97 L 278.80 384.86 L 230.78 384.86 Z" fill="#ffbbba" fill-rule="evenodd" group-id="1,4" id="Fill-3" node-id="13" stroke="none" target-height="63.115997" target-width="48.015198" target-x="230.7804" target-y="384.858"/></g><g node-id="142"><path d="M 230.57 415.74 C 240.17 418.24 248.79 419.50 256.43 419.50 C 264.07 419.50 271.46 418.24 278.59 415.74 L 278.59 352.62 L 230.57 352.62 L 230.57 415.74 Z" fill="#fb918d" fill-rule="evenodd" group-id="1,5" id="Fill-1" node-id="14" stroke="none" target-height="66.87628" target-width="48.015198" target-x="230.5744" target-y="352.622"/></g><g node-id="143"><path d="M 172.26 339.63 C 172.26 355.86 161.01 369.01 147.13 369.01 C 133.25 369.01 122.00 355.86 122.00 339.63 C 122.00 323.40 133.25 310.24 147.13 310.24 C 161.01 310.24 172.26 323.40 172.26 339.63" fill="#ffbbba" fill-rule="evenodd" group-id="1,6" id="Fill-5" node-id="15" stroke="none" target-height="58.77002" target-width="50.260002" target-x="122.00004" target-y="310.24426"/></g><g node-id="144"><path d="M 390.06 339.63 C 390.06 355.86 378.81 369.01 364.93 369.01 C 351.06 369.01 339.80 355.86 339.80 339.63 C 339.80 323.40 351.06 310.24 364.93 310.24 C 378.81 310.24 390.06 323.40 390.06 339.63" fill="#ffbbba" fill-rule="evenodd" group-id="1,7" id="Fill-7" node-id="16" stroke="none" target-height="58.77002" target-width="50.25998" target-x="339.80414" target-y="310.24426"/></g><g node-id="145"><path d="M 255.86 411.93 C 230.37 411.93 158.91 387.67 158.91 334.13 C 158.91 280.59 161.02 194.43 255.86 194.43 C 350.69 194.43 352.80 280.59 352.80 334.13 C 352.80 387.67 281.34 411.93 255.86 411.93 Z" fill="#ffbbba" fill-rule="evenodd" group-id="1,8" id="Fill-9" node-id="17" stroke="none" target-height="217.49998" target-width="193.88919" target-x="158.91223" target-y="194.42552"/></g><g node-id="146"><path d="M 255.86 404.93 C 230.37 404.93 158.91 380.67 158.91 327.13 C 158.91 273.59 161.02 187.43 255.86 187.43 C 350.69 187.43 352.80 273.59 352.80 327.13 C 352.80 380.67 281.34 404.93 255.86 404.93 Z" fill="#ffd5d6" fill-rule="evenodd" group-id="1,9" id="Fill-9" node-id="18" stroke="none" target-height="217.50002" target-width="193.88919" target-x="158.91223" target-y="187.42552"/></g><g node-id="147"><g node-id="154"><path d="M 263.28 335.38 C 263.28 339.38 247.99 339.38 247.99 335.38 C 247.99 330.98 251.42 327.74 255.64 327.74 C 259.86 327.74 263.28 330.98 263.28 335.38" fill="#e8b39f" fill-rule="evenodd" group-id="1,10,17" id="Fill-12" node-id="21" stroke="none" target-height="11.645599" target-width="15.291595" target-x="247.99185" target-y="327.7366"/><path d="M 209.23 277.59 C 209.74 275.44 211.89 274.11 214.04 274.61 L 231.54 278.64 C 233.69 279.15 235.03 281.30 234.52 283.45 C 234.02 285.60 231.87 286.94 229.72 286.43 L 212.21 282.40 C 210.06 281.89 208.73 279.74 209.23 277.59 Z" fill="#502b31" fill-rule="nonzero" group-id="1,10,17" id="Stroke-15" node-id="22" stroke="none" target-height="12.831818" target-width="26.298233" target-x="208.72832" target-y="274.1052"/><path d="M 302.73 277.55 C 303.25 279.70 301.94 281.86 299.79 282.39 L 296.70 283.12 L 284.15 285.99 L 282.28 286.43 C 280.13 286.94 277.97 285.62 277.45 283.47 C 276.94 281.32 278.26 279.16 280.41 278.65 L 283.18 278.00 L 297.29 274.76 L 297.89 274.62 C 300.03 274.09 302.20 275.41 302.73 277.55 Z" fill="#502b31" fill-rule="nonzero" group-id="1,10,17" id="Stroke-16" node-id="23" stroke="none" target-height="12.850311" target-width="26.316711" target-x="276.9361" target-y="274.09335"/><g node-id="155"><path d="M 266.80 358.88 C 267.73 358.27 268.97 358.54 269.57 359.46 C 270.17 360.39 269.91 361.63 268.98 362.23 C 260.38 367.82 250.56 367.71 242.04 362.88 C 241.08 362.33 240.75 361.11 241.29 360.15 C 241.84 359.19 243.06 358.85 244.02 359.40 C 251.29 363.53 259.51 363.62 266.80 358.88 Z" fill="#d06946" fill-rule="nonzero" group-id="1,10,17,18" id="Stroke-28" node-id="24" stroke="none" target-height="9.549225" target-width="29.425125" target-x="240.74532" target-y="358.27432"/></g><g node-id="156"><path d="M 224.14 310.78 C 225.06 310.18 226.30 310.44 226.90 311.37 C 227.51 312.29 227.24 313.53 226.32 314.13 C 217.72 319.73 207.90 319.62 199.38 314.78 C 198.42 314.24 198.08 313.02 198.63 312.06 C 199.17 311.10 200.39 310.76 201.35 311.30 C 208.63 315.43 216.85 315.52 224.14 310.78 Z" fill="#000000" fill-rule="nonzero" group-id="1,10,17,19" id="Stroke-28备份" node-id="25" stroke="none" target-height="9.549225" target-width="29.42514" target-x="198.08136" target-y="310.1789"/></g><path d="M 307.14 310.78 C 308.06 310.18 309.30 310.44 309.90 311.37 C 310.51 312.29 310.24 313.53 309.32 314.13 C 300.72 319.73 290.90 319.62 282.38 314.78 C 281.42 314.24 281.08 313.02 281.63 312.06 C 282.17 311.10 283.39 310.76 284.35 311.30 C 291.63 315.43 299.85 315.52 307.14 310.78 Z" fill="#000000" fill-rule="nonzero" group-id="1,10,17,20" id="Stroke-28备份-2" node-id="26" stroke="none" target-height="9.549225" target-width="29.42514" target-x="281.08136" target-y="310.1789"/></g></g><g node-id="148"><path d="M 331.63 511.59 L 175.95 511.59 C 175.95 470.94 208.90 437.99 249.55 437.99 L 258.02 437.99 C 298.67 437.99 331.63 470.94 331.63 511.59" fill="#ffbbba" fill-rule="evenodd" group-id="1,11" id="Fill-13" node-id="27" stroke="none" target-height="73.60358" target-width="155.6748" target-x="175.95084" target-y="437.98605"/></g><g node-id="149"><path d="M 290.11 444.98 C 284.49 458.27 271.35 467.59 256.01 467.59 C 240.03 467.59 226.60 457.46 221.40 443.28 C 194.48 454.40 175.72 480.98 175.72 511.92 L 175.72 512.18 L 332.12 512.18 L 332.12 511.92 C 332.12 482.47 314.99 456.95 290.11 444.98" fill="#66b5db" fill-rule="evenodd" group-id="1,12" id="Fill-14" node-id="28" stroke="none" target-height="68.90286" target-width="156.40001" target-x="175.71596" target-y="443.2794"/></g><g node-id="150"><path d="M 171.15 193.14 C 168.01 190.81 282.61 167.36 306.74 178.77 C 307.18 172.54 310.10 177.46 317.10 179.16 C 323.72 180.76 331.21 180.46 328.31 183.05 C 347.85 197.84 361.14 233.85 355.70 229.64 C 362.50 249.35 338.13 249.19 338.13 249.19 L 335.54 277.99 C 335.54 277.99 313.41 230.13 307.71 226.75 C 285.00 256.39 261.20 268.97 230.63 269.50 C 233.00 262.87 237.21 256.79 239.63 250.01 C 222.92 271.96 204.02 287.66 183.05 298.69 C 183.32 289.66 183.76 281.62 184.04 272.28 C 172.95 286.26 166.21 288.83 158.91 296.18 C 160.60 277.56 157.11 269.97 158.91 250.01 C 160.60 245.36 155.49 207.24 171.15 193.14 Z" fill="#ffbbba" fill-rule="evenodd" group-id="1,13" id="Fill-17" node-id="29" stroke="none" target-height="131.33162" target-width="207.01602" target-x="155.48715" target-y="167.36192"/></g><g node-id="151"><path d="M 139.71 245.48 C 144.35 221.54 155.49 200.24 171.15 186.14 C 168.01 183.81 164.86 181.47 161.70 179.12 C 184.32 165.67 209.80 159.12 235.71 160.20 C 234.22 157.15 232.73 154.08 231.22 151.00 C 257.08 153.31 282.61 160.36 306.74 171.77 C 307.18 165.54 305.89 159.10 303.20 154.17 C 309.08 160.06 310.10 170.46 317.10 172.16 C 323.72 173.76 336.48 166.87 343.15 164.47 C 340.21 167.09 331.21 173.46 328.31 176.05 C 347.85 190.84 360.67 210.63 371.90 235.17 C 366.54 231.03 361.14 226.85 355.70 222.64 C 362.50 242.35 366.69 258.10 368.50 278.82 C 362.06 266.64 338.13 242.19 338.13 242.19 L 335.54 270.99 C 335.54 270.99 313.41 222.13 307.71 218.75 C 285.00 248.39 263.69 262.59 233.12 263.11 C 235.49 256.49 237.88 249.79 240.31 243.01 C 223.60 264.96 204.17 281.81 183.21 292.84 C 183.48 283.81 183.76 274.62 184.04 265.28 C 172.95 279.26 160.27 290.51 146.53 298.69 C 148.21 280.08 149.95 260.80 151.76 240.84 C 147.73 242.39 143.72 243.94 139.71 245.48" fill="#025483" fill-rule="evenodd" group-id="1,14" id="Fill-17" node-id="30" stroke="none" target-height="147.69362" target-width="232.18518" target-x="139.71317" target-y="150.99992"/></g><g node-id="152"><path d="M 172.26 269.78 C 169.32 285.38 164.32 306.78 164.92 317.18 L 157.87 313.06 L 153.72 284.78 L 172.26 269.78 Z" fill="#025483" fill-rule="evenodd" group-id="1,15" id="Fill-18" node-id="31" stroke="none" target-height="47.399963" target-width="18.544006" target-x="153.71603" target-y="269.78223"/></g><path d="M 331.92 231.38 C 334.86 246.98 346.86 307.18 346.26 317.58 L 353.30 313.46 L 350.69 244.98 L 331.92 231.38 Z" fill="#025483" fill-rule="evenodd" group-id="1,16" id="Fill-19" node-id="32" stroke="none" target-height="86.20001" target-width="21.385986" target-x="331.9159" target-y="231.3822"/></g></g></svg>