<?xml version="1.0" encoding="UTF-8"?>
<svg width="512px" height="512px" viewBox="0 0 512 512" version="1.1" xmlns="http://www.w3.org/2000/svg" xmlns:xlink="http://www.w3.org/1999/xlink">
    <title>女生-粉</title>
    <defs>
        <polygon id="path-1" points="0 0.17932 76.39832 0.17932 76.39832 76.57772 0 76.57772"></polygon>
        <polygon id="path-3" points="0.29924 0.2536 244.71764 0.2536 244.71764 244.67188 0.29924 244.67188"></polygon>
    </defs>
    <g id="女生-粉" stroke="none" stroke-width="1" fill="none" fill-rule="evenodd">
        <rect id="矩形" fill="#FFC6CE" x="0" y="0" width="512" height="512"></rect>
        <g id="编组" transform="translate(111.000000, 100.000000)">
            <polygon id="Fill-1" fill="#FFBBBA" points="119.5744 286.738 167.5896 286.738 167.5896 223.622 119.5744 223.622"></polygon>
            <path d="M119.5744,254.738 C129.169108,257.244865 137.788175,258.498297 145.4316,258.498297 C153.075025,258.498297 160.461025,257.244865 167.5896,254.738 L167.5896,191.622 L119.5744,191.622 L119.5744,254.738 Z" id="Fill-1" fill="#FB918D"></path>
            <g transform="translate(0.000000, 0.146400)">
                <g transform="translate(0.000000, 186.400000)">
                    <mask id="mask-2" fill="white">
                        <use xlink:href="#path-1"></use>
                    </mask>
                    <g id="Clip-3"></g>
                    <path d="M76.39832,38.37852 C76.39832,59.47532 59.29592,76.57772 38.19912,76.57772 C17.10232,76.57772 -8e-05,59.47532 -8e-05,38.37852 C-8e-05,17.28172 17.10232,0.17932 38.19912,0.17932 C59.29592,0.17932 76.39832,17.28172 76.39832,38.37852" id="Fill-2" fill="#9D6AEA" mask="url(#mask-2)"></path>
                </g>
                <path d="M289.01664,224.77852 C289.01664,245.87532 271.91424,262.97772 250.81744,262.97772 C229.72064,262.97772 212.61824,245.87532 212.61824,224.77852 C212.61824,203.68172 229.72064,186.57932 250.81744,186.57932 C271.91424,186.57932 289.01664,203.68172 289.01664,224.77852" id="Fill-4" fill="#9D6AEA"></path>
                <g transform="translate(22.000000, 0.000000)">
                    <mask id="mask-4" fill="white">
                        <use xlink:href="#path-3"></use>
                    </mask>
                    <g id="Clip-7"></g>
                    <path d="M244.71764,122.46268 C244.71764,189.95708 190.00244,244.67188 122.50844,244.67188 C55.01404,244.67188 0.29924,189.95708 0.29924,122.46268 C0.29924,54.96828 55.01404,0.25348 122.50844,0.25348 C190.00244,0.25348 244.71764,54.96828 244.71764,122.46268" id="Fill-6" fill="#9D6AEA" mask="url(#mask-4)"></path>
                </g>
                <path d="M61.05396,178.24688 C61.05396,194.47568 49.80276,207.63168 35.92396,207.63168 C22.04516,207.63168 10.79396,194.47568 10.79396,178.24688 C10.79396,162.01808 22.04516,148.86208 35.92396,148.86208 C49.80276,148.86208 61.05396,162.01808 61.05396,178.24688" id="Fill-8" fill="#FFBBBA"></path>
                <path d="M278.85804,178.24688 C278.85804,194.47568 267.60684,207.63168 253.72804,207.63168 C239.84924,207.63168 228.59804,194.47568 228.59804,178.24688 C228.59804,162.01808 239.84924,148.86208 253.72804,148.86208 C267.60684,148.86208 278.85804,162.01808 278.85804,178.24688" id="Fill-12" fill="#FFBBBA"></path>
                <path d="M144.65096,250.54328 C119.16672,250.54328 47.70616,226.28728 47.70616,172.74648 C47.70616,119.20528 91.11016,56.65448 144.65096,56.65448 C198.19176,56.65448 241.59536,119.20528 241.59536,172.74648 C241.59536,226.28728 170.1352,250.54328 144.65096,250.54328 Z" id="Fill-16" fill="#FFC0BA"></path>
                <path d="M144.65096,243.54328 C119.16672,243.54328 47.70616,219.28728 47.70616,165.74648 C47.70616,112.20528 91.11016,49.65448 144.65096,49.65448 C198.19176,49.65448 241.59536,112.20528 241.59536,165.74648 C241.59536,219.28728 170.1352,243.54328 144.65096,243.54328 Z" id="Fill-16" fill="#FFD5D6"></path>
                <path d="M152.0774,174 C152.0774,178 136.7858,178 136.7858,174 C136.7858,169.6 140.209,166.3544 144.4314,166.3544 C148.6542,166.3544 152.0774,169.6 152.0774,174" id="Fill-26" fill="#E8B39F"></path>
                <path d="M51.6376095,159.56878 C36.4500095,85.8927804 79.67688,29.2832 153.91808,29.2832 C197.02088,29.2832 265.322022,72.1537495 238.362422,158.80495 C220.694422,160.15695 174.67328,123.4312 150.21568,66.0412 C125.21728,125.1596 77.6708095,151.97838 51.6376095,159.56878 Z" id="Fill-34" fill="#FFC0BA"></path>
                <path d="M154.192793,193.707738 C154.825635,192.802429 156.072553,192.581551 156.977862,193.214393 C157.883171,193.847235 158.104049,195.094153 157.471207,195.999462 C151.593786,204.407378 142.448486,207.982645 132.736646,206.692585 C131.641694,206.547139 130.871968,205.541598 131.017415,204.446646 C131.162861,203.351694 132.168402,202.581968 133.263354,202.727415 C141.55275,203.828526 149.210818,200.834678 154.192793,193.707738 Z" id="Stroke-28" fill="#D06946" fill-rule="nonzero" transform="translate(144.415971, 199.901318) rotate(22.000000) translate(-144.415971, -199.901318) "></path>
                <g id="编组-3" transform="translate(142.500000, 151.853600) rotate(-180.000000) translate(-142.500000, -151.853600) translate(88.000000, 142.853600)" fill="#000000" fill-rule="nonzero">
                    <path d="M23.1927927,2.85413806 C23.8256348,1.94882889 25.0725528,1.72795067 25.9778619,2.36079275 C26.8831711,2.99363482 27.1040493,4.24055277 26.4712073,5.14586194 C20.5937862,13.5537782 11.4484858,17.1290448 1.73664588,15.8389853 C0.641694235,15.6935389 -0.128031798,14.6879975 0.0174146657,13.5930459 C0.162861129,12.4980942 1.16840247,11.7283682 2.26335412,11.8738147 C10.5527495,12.9749256 18.210818,9.9810779 23.1927927,2.85413806 Z" id="Stroke-28备份" transform="translate(13.415971, 9.047718) rotate(-158.000000) translate(-13.415971, -9.047718) "></path>
                    <path d="M106.192793,2.85413806 C106.825635,1.94882889 108.072553,1.72795067 108.977862,2.36079275 C109.883171,2.99363482 110.104049,4.24055277 109.471207,5.14586194 C103.593786,13.5537782 94.4484858,17.1290448 84.7366459,15.8389853 C83.6416942,15.6935389 82.8719682,14.6879975 83.0174147,13.5930459 C83.1628611,12.4980942 84.1684025,11.7283682 85.2633541,11.8738147 C93.5527495,12.9749256 101.210818,9.9810779 106.192793,2.85413806 Z" id="Stroke-28备份-2" transform="translate(96.415971, 9.047718) rotate(-158.000000) translate(-96.415971, -9.047718) "></path>
                </g>
                <path d="M119.274037,115.127733 C120.375573,115.045927 121.334861,115.872581 121.416667,116.974117 C121.498473,118.075653 120.671819,119.034941 119.570283,119.116747 C113.584097,119.561314 107.762259,120.903308 102.686662,123.004192 C101.666066,123.426635 100.496252,122.941737 100.073808,121.921142 C99.6513648,120.900546 100.136263,119.730732 101.156858,119.308288 C106.634185,117.041121 112.872369,115.603155 119.274037,115.127733 Z" id="Stroke-30" fill="#775B45" fill-rule="nonzero"></path>
                <path d="M170.283332,115.127733 C176.684813,115.603173 182.923361,117.041198 188.400502,119.308288 C189.421097,119.730732 189.905995,120.900546 189.483552,121.921142 C189.061108,122.941737 187.891294,123.426635 186.870698,123.004192 C181.795289,120.903385 175.97308,119.561329 169.987068,119.116747 C168.885532,119.034935 168.058882,118.075643 168.140693,116.974108 C168.218786,115.922642 169.096401,115.12164 170.134074,115.122148 L170.283332,115.127733 Z" id="Stroke-32" fill="#775B45" fill-rule="nonzero"></path>
                <path d="M150.21568,56.0412 C125.21728,115.1596 75.48688,146.0084 49.45368,153.5988 C34.26608,79.9228 79.67688,21.2832 153.91808,21.2832 C197.02088,21.2832 267.00288,66.9476 240.04328,153.5988 C222.37528,154.9508 174.67328,113.4312 150.21568,56.0412" id="Fill-34" fill="#9D6AEA"></path>
                <path d="M219.4196,350.20724 L63.7448,350.20724 C63.7448,309.55724 96.698,276.60364 137.348,276.60364 L145.816,276.60364 C186.466,276.60364 219.4196,309.55724 219.4196,350.20724" id="Fill-36" fill="#FFBBBA"></path>
                <path d="M177.90708,283.6002 C172.27948,296.8842 159.14308,306.2038 143.80788,306.2038 C127.82508,306.2038 114.39028,296.081 109.19748,281.897 C82.27468,293.0146 63.50988,319.6022 63.50988,350.5402 L63.50988,350.7998 L219.90988,350.7998 L219.90988,350.5402 C219.90988,321.0882 202.78348,295.567 177.90708,283.6002" id="Fill-38" fill="#FE8788"></path>
            </g>
        </g>
    </g>
</svg>