<?xml version="1.0" encoding="UTF-8"?>
<svg width="512px" height="512px" viewBox="0 0 512 512" version="1.1" xmlns="http://www.w3.org/2000/svg" xmlns:xlink="http://www.w3.org/1999/xlink">
    <title>女生-紫</title>
    <g id="女生-紫" stroke="none" stroke-width="1" fill="none" fill-rule="evenodd">
        <rect id="矩形" fill="#DFD6FE" x="0" y="0" width="512" height="512"></rect>
        <g id="编组" transform="translate(122.000000, 100.000000)">
            <g transform="translate(10.800000, 0.146400)">
                <polygon id="Clip-2" points="0.140687387 0.2536 245.688318 0.2536 245.688318 334.79988 0.140687387 334.79988"></polygon>
                <path d="M245.12372,122.46268 C245.12372,327.59988 261.11292,334.79988 122.91452,334.79988 C-15.28428,334.79988 0.70532,325.99988 0.70532,122.46268 C0.70532,54.96828 55.42012,0.25348 122.91452,0.25348 C190.40852,0.25348 245.12372,54.96828 245.12372,122.46268" id="Fill-1" fill="#2D3A7D"></path>
            </g>
            <polygon id="Fill-3" fill="#FFBBBA" points="108.7804 286.738 156.7956 286.738 156.7956 223.622 108.7804 223.622"></polygon>
            <path d="M108.7804,255.622 C117.607842,257.743102 125.610376,258.803652 132.788,258.803652 C139.965624,258.803652 147.968158,257.743102 156.7956,255.622 L156.7956,222.622 L108.7804,222.622 L108.7804,255.622 Z" id="Fill-3" fill="#FB918D"></path>
            <path d="M50.26004,178.39328 C50.26004,194.62208 39.00884,207.77808 25.13004,207.77808 C11.25124,207.77808 4e-05,194.62208 4e-05,178.39328 C4e-05,162.16448 11.25124,149.00848 25.13004,149.00848 C39.00884,149.00848 50.26004,162.16448 50.26004,178.39328" id="Fill-5" fill="#FFBBBA"></path>
            <path d="M268.06412,178.39328 C268.06412,194.62208 256.81292,207.77808 242.93412,207.77808 C229.05532,207.77808 217.80412,194.62208 217.80412,178.39328 C217.80412,162.16448 229.05532,149.00848 242.93412,149.00848 C256.81292,149.00848 268.06412,162.16448 268.06412,178.39328" id="Fill-7" fill="#FFBBBA"></path>
            <path d="M131.85704,250.68968 C104.063,250.68968 36.91224,226.43368 36.91224,172.89288 C36.91224,119.35168 80.31624,56.80088 133.85704,56.80088 C187.39784,56.80088 230.80144,119.35168 230.80144,172.89288 C230.80144,226.43368 159.65108,250.68968 131.85704,250.68968 Z" id="Fill-9" fill="#FFBBBA"></path>
            <path d="M131.85704,243.68968 C104.063,243.68968 36.91224,219.43368 36.91224,165.89288 C36.91224,112.35168 80.31624,49.80088 133.85704,49.80088 C187.39784,49.80088 230.80144,112.35168 230.80144,165.89288 C230.80144,219.43368 159.65108,243.68968 131.85704,243.68968 Z" id="Fill-9" fill="#FFD5D6"></path>
            <path d="M209.62564,350.35364 L53.95084,350.35364 C53.95084,309.70364 86.90404,276.75004 127.55404,276.75004 L136.02204,276.75004 C176.67204,276.75004 209.62564,309.70364 209.62564,350.35364" id="Fill-17" fill="#FFBBBA"></path>
            <path d="M168.11316,283.7466 C162.48556,297.0306 149.34916,306.3502 134.01396,306.3502 C118.03116,306.3502 104.59636,296.2274 99.40356,282.0434 C72.48076,293.161 53.71596,319.7486 53.71596,350.6866 L53.71596,350.9462 L210.11596,350.9462 L210.11596,350.6866 C210.11596,321.2346 192.98956,295.7134 168.11316,283.7466" id="Fill-18" fill-opacity="0.734839379" fill="#FF6B90"></path>
        </g>
        <path d="M332.9493,313.141 C320.0133,313.141 309.4881,302.6158 309.4881,289.6784 C309.4881,288.6046 309.5623,287.5336 309.7093,286.471 C296.5731,285.631 285.1827,277.2128 280.4815,265.0454 C273.2603,269.6542 264.9751,272.0706 256.2993,272.0706 C247.6235,272.0706 239.3397,269.6542 232.1185,265.0454 C227.4173,277.2128 216.0269,285.631 202.8907,286.471 C203.0377,287.5336 203.1119,288.6046 203.1119,289.6784 C203.1119,302.6158 192.5867,313.141 179.6493,313.141 C166.7133,313.141 156.1881,302.6158 156.1881,289.6784 C156.1881,280.0492 161.9841,271.596 170.6571,268.0204 C168.2939,263.3402 167.0577,258.17 167.0577,252.878 C167.0577,234.3168 182.1581,219.2164 200.7193,219.2164 C204.4559,219.2164 208.0861,219.8142 211.5553,220.9986 C214.4603,198.7246 233.4121,181.8 256.2993,181.8 C279.1865,181.8 298.1397,198.7246 301.0447,220.9986 C304.5139,219.8142 308.1441,219.2164 311.8807,219.2164 C330.4419,219.2164 345.5423,234.3168 345.5423,252.878 C345.5423,258.17 344.3061,263.3402 341.9429,268.0204 C350.6159,271.596 356.4119,280.0492 356.4119,289.6784 C356.4119,302.6158 345.8867,313.141 332.9493,313.141" id="Fill-333" fill="#2D3A7D"></path>
        <g id="编组-2" transform="translate(207.036982, 279.230838)">
            <path d="M58.2464583,55.9155621 C58.2464583,59.9155621 42.9548583,59.9155621 42.9548583,55.9155621 C42.9548583,51.5155621 46.3780583,48.2699621 50.6004583,48.2699621 C54.8232583,48.2699621 58.2464583,51.5155621 58.2464583,55.9155621" id="Fill-13" fill="#E8B39F"></path>
            <path d="M68.534571,68.8990602 C69.1674131,67.993751 70.414331,67.7728728 71.3196402,68.4057148 C72.2249494,69.0385569 72.4458276,70.2854749 71.8129855,71.190784 C65.9355644,79.5987003 56.7902641,83.1739669 47.0784242,81.8839074 C45.9834725,81.738461 45.2137465,80.7329196 45.3591929,79.637968 C45.5046394,78.5430163 46.5101807,77.7732903 47.6051324,77.9187368 C55.8945278,79.0198477 63.5525963,76.026 68.534571,68.8990602 Z" id="Stroke-14" fill="#D06946" fill-rule="nonzero"></path>
            <path d="M0.730949038,5.67340605 C5.97187438,1.3704588 12.9930519,-0.657341812 19.7212128,0.188792545 C20.8171499,0.326617724 21.593853,1.32677962 21.4560278,2.42271666 C21.3182026,3.5186537 20.3180408,4.29535683 19.2221037,4.15753165 C13.5838851,3.44846858 7.66105807,5.15905234 3.2691675,8.76491814 C2.41547001,9.46582782 1.1552119,9.34196882 0.454302224,8.48827133 C-0.246607451,7.63457384 -0.122748454,6.37431573 0.730949038,5.67340605 Z" id="Stroke-20" fill="#3C2E23" fill-rule="nonzero"></path>
            <path d="M29.1790983,33.2429221 C29.1790983,38.4753221 24.9374983,42.7173221 19.7050983,42.7173221 C14.4726983,42.7173221 10.2310983,38.4753221 10.2310983,33.2429221 C10.2310983,28.0105221 14.4726983,23.7689221 19.7050983,23.7689221 C24.9374983,23.7689221 29.1790983,28.0105221 29.1790983,33.2429221" id="Fill-12" fill="#000000"></path>
            <path d="M68.8026204,6.60733054 C69.5176036,5.76538467 70.779744,5.66246108 71.6216898,6.37744426 L71.7868728,6.515839 L72.1156948,6.77960477 C74.0300869,8.26781625 75.9055576,8.87627282 79.1314349,8.74319449 L79.6979301,8.71314284 C79.7946371,8.70693216 79.8925113,8.70012259 79.9915851,8.69271736 L80.6006821,8.64116381 L81.2401246,8.57546907 C81.3493135,8.56335012 81.4598317,8.55064839 81.5717114,8.53736712 L82.2595884,8.45075077 C82.3770442,8.43516422 82.4959264,8.41900457 82.6162674,8.40227505 L83.7395996,8.23640984 L84.9469575,8.04029375 L86.2435904,7.81444903 C86.3928149,7.78772292 86.5437899,7.76045595 86.6965477,7.73265136 C87.7832622,7.53485024 88.8245679,8.25545696 89.022369,9.3421715 C89.2201701,10.428886 88.4995634,11.4701917 87.4128489,11.6679928 L86.4400672,11.8416766 L85.5060423,12.0011908 L84.6093359,12.1462629 L83.7485101,12.2766204 C83.6079492,12.2971053 83.4688235,12.3169658 83.3311029,12.3361961 L82.5214013,12.4439711 L81.743985,12.5363504 C81.6170262,12.5504488 81.4913526,12.5638944 81.3669344,12.5766815 L80.6352495,12.6454566 C80.5157328,12.6555869 80.3974115,12.6650474 80.2802557,12.6738323 L79.5910665,12.71839 C74.8612849,12.9729129 72.0816673,12.015757 69.0325067,9.42639994 C68.1905608,8.71141676 68.0876373,7.4492764 68.8026204,6.60733054 Z" id="Stroke-15" fill="#564334" fill-rule="nonzero"></path>
            <path d="M84.1578916,23.9942988 C85.1453012,23.4992271 86.3470898,23.8983458 86.8421615,24.8857554 C87.3136584,25.8261455 86.9740982,26.9609837 86.0877285,27.4945927 L85.950705,27.5700254 L75.6500183,32.7341621 L85.6062312,35.5930276 C86.6196492,35.883996 87.2247538,36.9065718 87.0125515,37.922315 L86.9766328,38.067295 C86.6856643,39.080713 85.6630886,39.6858176 84.6473453,39.4736153 L84.5023654,39.4376966 L69.6219654,35.1652966 C67.9240962,34.6778113 67.6639031,32.4147517 69.1345397,31.5335653 L69.2774916,31.4550988 L84.1578916,23.9942988 Z" id="Stroke-19" fill="#000000" fill-rule="nonzero"></path>
        </g>
    </g>
</svg>