<svg height="512" node-id="1" sillyvg="true" template-height="512" template-width="512" version="1.1" viewBox="0 0 512 512" width="512" xmlns="http://www.w3.org/2000/svg" xmlns:xlink="http://www.w3.org/1999/xlink"><defs node-id="44"><mask height="87.65375" id="mask-2" maskUnits="userSpaceOnUse" node-id="13" width="87.6528" x="332.49567" y="158.38455"><path d="M 339.80 165.69 L 412.84 165.69 L 412.84 238.73 L 339.80 238.73 Z" fill="#ffffff" fill-rule="evenodd" node-id="49" stroke="none" target-height="73.0448" target-width="73.043915" target-x="339.80008" target-y="165.68903"/></mask><mask height="75.73923" id="mask-4" maskUnits="userSpaceOnUse" node-id="17" width="57.618225" x="226.18689" y="378.3104"><path d="M 99.00 511.95 L 412.84 511.95 L 412.84 161.40 L 99.00 161.40 Z" fill="#ffffff" fill-rule="evenodd" node-id="56" stroke="none" target-height="350.5464" target-width="313.844" target-x="99" target-y="161.4"/></mask><mask height="43.41797" id="mask1" maskUnits="userSpaceOnUse" node-id="60" width="57.618225" x="225.97888" y="380.00385"><path d="M 99.00 511.95 L 412.84 511.95 L 412.84 161.40 L 99.00 161.40 Z" fill="#ffffff" fill-rule="evenodd" node-id="64" stroke="none" target-height="350.5464" target-width="313.844" target-x="99" target-y="161.4"/></mask><mask height="284.13602" id="mask2" maskUnits="userSpaceOnUse" node-id="68" width="293.3021" x="109.27112" y="137.72156"><path d="M 99.00 511.95 L 412.84 511.95 L 412.84 161.40 L 99.00 161.40 Z" fill="#ffffff" fill-rule="evenodd" node-id="72" stroke="none" target-height="350.5464" target-width="313.844" target-x="99" target-y="161.4"/></mask><mask height="70.52399" id="mask3" maskUnits="userSpaceOnUse" node-id="76" width="60.312004" x="117.18168" y="304.1313"><path d="M 99.00 511.95 L 412.84 511.95 L 412.84 161.40 L 99.00 161.40 Z" fill="#ffffff" fill-rule="evenodd" node-id="80" stroke="none" target-height="350.5464" target-width="313.844" target-x="99" target-y="161.4"/></mask><mask height="70.52399" id="mask4" maskUnits="userSpaceOnUse" node-id="84" width="60.31201" x="334.98578" y="304.1313"><path d="M 99.00 511.95 L 412.84 511.95 L 412.84 161.40 L 99.00 161.40 Z" fill="#ffffff" fill-rule="evenodd" node-id="88" stroke="none" target-height="350.5464" target-width="313.844" target-x="99" target-y="161.4"/></mask><mask height="232.66656" id="mask5" maskUnits="userSpaceOnUse" node-id="92" width="232.66705" x="139.73099" y="198.41183"><path d="M 99.00 511.95 L 412.84 511.95 L 412.84 161.40 L 99.00 161.40 Z" fill="#ffffff" fill-rule="evenodd" node-id="96" stroke="none" target-height="350.5464" target-width="313.844" target-x="99" target-y="161.4"/></mask><mask height="232.66656" id="mask6" maskUnits="userSpaceOnUse" node-id="100" width="232.66705" x="139.73099" y="191.41183"><path d="M 99.00 511.95 L 412.84 511.95 L 412.84 161.40 L 99.00 161.40 Z" fill="#ffffff" fill-rule="evenodd" node-id="104" stroke="none" target-height="350.5464" target-width="313.844" target-x="99" target-y="161.4"/></mask><mask height="16.169281" id="mask7" maskUnits="userSpaceOnUse" node-id="108" width="27.537598" x="206.18088" y="303.2521"><path d="M 99.00 511.95 L 412.84 511.95 L 412.84 161.40 L 99.00 161.40 Z" fill="#ffffff" fill-rule="evenodd" node-id="112" stroke="none" target-height="350.5464" target-width="313.844" target-x="99" target-y="161.4"/></mask><mask height="16.169281" id="mask8" maskUnits="userSpaceOnUse" node-id="116" width="27.538055" x="277.41055" y="303.2521"><path d="M 99.00 511.95 L 412.84 511.95 L 412.84 161.40 L 99.00 161.40 Z" fill="#ffffff" fill-rule="evenodd" node-id="120" stroke="none" target-height="350.5464" target-width="313.844" target-x="99" target-y="161.4"/></mask><mask height="12.774719" id="mask9" maskUnits="userSpaceOnUse" node-id="124" width="18.3499" x="246.67036" y="326.43604"><path d="M 99.00 511.95 L 412.84 511.95 L 412.84 161.40 L 99.00 161.40 Z" fill="#ffffff" fill-rule="evenodd" node-id="128" stroke="none" target-height="350.5464" target-width="313.844" target-x="99" target-y="161.4"/></mask><mask height="155.91049" id="mask10" maskUnits="userSpaceOnUse" node-id="132" width="235.63991" x="139.56206" y="177.43665"><path d="M 99.00 511.95 L 412.84 511.95 L 412.84 161.40 L 99.00 161.40 Z" fill="#ffffff" fill-rule="evenodd" node-id="136" stroke="none" target-height="350.5464" target-width="313.844" target-x="99" target-y="161.4"/></mask><mask height="158.7792" id="mask11" maskUnits="userSpaceOnUse" node-id="140" width="239.42508" x="137.99457" y="169.1976"><path d="M 99.00 511.95 L 412.84 511.95 L 412.84 161.40 L 99.00 161.40 Z" fill="#ffffff" fill-rule="evenodd" node-id="144" stroke="none" target-height="350.5464" target-width="313.844" target-x="99" target-y="161.4"/></mask><mask height="88.32431" id="mask12" maskUnits="userSpaceOnUse" node-id="148" width="186.80977" x="160.59105" y="430.38968"><path d="M 99.00 511.95 L 412.84 511.95 L 412.84 161.40 L 99.00 161.40 Z" fill="#ffffff" fill-rule="evenodd" node-id="152" stroke="none" target-height="350.5464" target-width="313.844" target-x="99" target-y="161.4"/></mask><mask height="82.68332" id="mask13" maskUnits="userSpaceOnUse" node-id="156" width="187.68" x="160.2836" y="436.1531"><path d="M 99.00 511.95 L 412.84 511.95 L 412.84 161.40 L 99.00 161.40 Z" fill="#ffffff" fill-rule="evenodd" node-id="160" stroke="none" target-height="350.5464" target-width="313.844" target-x="99" target-y="161.4"/></mask></defs><path d="M 0.00 0.00 L 512.00 0.00 L 512.00 512.00 L 0.00 512.00 Z" fill="#feecd6" fill-rule="evenodd" id="矩形" node-id="8" stroke="none" target-height="512" target-width="512" target-x="0" target-y="0"/><g transform="translate(0, -75)"><g node-id="162"><g node-id="164"><path d="M 172.04 202.21 C 172.04 222.38 155.69 238.73 135.52 238.73 C 115.35 238.73 99.00 222.38 99.00 202.21 C 99.00 182.04 115.35 165.69 135.52 165.69 C 155.69 165.69 172.04 182.04 172.04 202.21" fill="#beb6a9" fill-rule="evenodd" group-id="1,3" id="Fill-1" node-id="11" stroke="none" target-height="73.0448" target-width="73.04401" target-x="99.00008" target-y="165.68903"/><g node-id="167"><g node-id="184"><path d="M 412.84 202.21 C 412.84 222.38 396.49 238.73 376.32 238.73 C 356.15 238.73 339.80 222.38 339.80 202.21 C 339.80 182.04 356.15 165.69 376.32 165.69 C 396.49 165.69 412.84 182.04 412.84 202.21" fill="#beb6a9" fill-rule="evenodd" group-id="1,3,6,23" id="Fill-3" node-id="16" stroke="none" target-height="73.0448" target-width="73.043976" target-x="339.80008" target-y="165.68903"/></g></g><g node-id="169"><path d="M 230.99 447.74 L 279.00 447.74 L 279.00 384.62 L 230.99 384.62 Z" fill="#ffbbba" fill-rule="evenodd" group-id="1,3,8" id="Fill-5" node-id="20" stroke="none" target-height="63.115997" target-width="48.015198" target-x="230.9884" target-y="384.622"/></g><g node-id="170"><path d="M 230.78 416.62 C 239.61 418.74 247.61 419.80 254.79 419.80 C 261.97 419.80 269.97 418.74 278.80 416.62 L 278.80 383.62 L 230.78 383.62 L 230.78 416.62 Z" fill="#fb918d" fill-rule="evenodd" group-id="1,3,9" id="Fill-3" node-id="21" stroke="none" target-height="36.18167" target-width="48.015198" target-x="230.7804" target-y="383.62198"/></g><g node-id="171"><path d="M 378.13 279.79 C 378.13 345.17 323.42 398.18 255.92 398.18 C 188.43 398.18 133.71 345.17 133.71 279.79 C 133.71 214.40 188.43 161.40 255.92 161.40 C 323.42 161.40 378.13 214.40 378.13 279.79" fill="#beb6a9" fill-rule="evenodd" group-id="1,3,10" id="Fill-7" node-id="22" stroke="none" target-height="236.78001" target-width="244.4184" target-x="133.71295" target-y="161.39955"/></g><g node-id="172"><path d="M 172.47 339.39 C 172.47 355.62 161.22 368.78 147.34 368.78 C 133.46 368.78 122.21 355.62 122.21 339.39 C 122.21 323.16 133.46 310.01 147.34 310.01 C 161.22 310.01 172.47 323.16 172.47 339.39" fill="#ffbbba" fill-rule="evenodd" group-id="1,3,11" id="Fill-8" node-id="23" stroke="none" target-height="58.76999" target-width="50.260002" target-x="122.20768" target-y="310.00827"/></g><g node-id="173"><path d="M 390.27 339.39 C 390.27 355.62 379.02 368.78 365.14 368.78 C 351.26 368.78 340.01 355.62 340.01 339.39 C 340.01 323.16 351.26 310.01 365.14 310.01 C 379.02 310.01 390.27 323.16 390.27 339.39" fill="#ffbbba" fill-rule="evenodd" group-id="1,3,12" id="Fill-10" node-id="24" stroke="none" target-height="58.76999" target-width="50.26001" target-x="340.01178" target-y="310.00827"/></g><g node-id="174"><path d="M 256.06 411.69 C 230.58 411.69 159.12 387.43 159.12 333.89 C 159.12 280.35 202.52 217.80 256.06 217.80 C 309.61 217.80 353.01 280.35 353.01 333.89 C 353.01 387.43 281.55 411.69 256.06 411.69 Z" fill="#ffbbba" fill-rule="evenodd" group-id="1,3,13" id="Fill-12" node-id="25" stroke="none" target-height="193.8888" target-width="193.8892" target-x="159.11992" target-y="217.80072"/></g><g node-id="175"><path d="M 256.06 404.69 C 230.58 404.69 159.12 380.43 159.12 326.89 C 159.12 273.35 202.52 210.80 256.06 210.80 C 309.61 210.80 353.01 273.35 353.01 326.89 C 353.01 380.43 281.55 404.69 256.06 404.69 Z" fill="#ffd5d6" fill-rule="evenodd" group-id="1,3,14" id="Fill-12" node-id="26" stroke="none" target-height="193.8888" target-width="193.8892" target-x="159.11992" target-y="210.80072"/></g><g node-id="176"><path d="M 219.95 304.60 C 226.29 304.60 231.42 309.74 231.42 316.07 C 231.42 317.18 230.53 318.07 229.42 318.07 C 228.32 318.07 227.42 317.18 227.42 316.07 C 227.42 311.95 224.08 308.60 219.95 308.60 C 215.82 308.60 212.48 311.95 212.48 316.07 C 212.48 317.18 211.58 318.07 210.48 318.07 C 209.37 318.07 208.48 317.18 208.48 316.07 C 208.48 309.74 213.61 304.60 219.95 304.60 Z" fill="#000000" fill-rule="nonzero" group-id="1,3,15" id="Stroke-15" node-id="27" stroke="none" target-height="13.474426" target-width="22.947998" target-x="208.47568" target-y="304.59955"/></g><g node-id="177"><path d="M 291.18 304.60 C 297.52 304.60 302.65 309.74 302.65 316.07 C 302.65 317.18 301.76 318.07 300.65 318.07 C 299.55 318.07 298.65 317.18 298.65 316.07 C 298.65 311.95 295.31 308.60 291.18 308.60 C 287.05 308.60 283.71 311.95 283.71 316.07 C 283.71 317.18 282.81 318.07 281.71 318.07 C 280.60 318.07 279.71 317.18 279.71 316.07 C 279.71 309.74 284.84 304.60 291.18 304.60 Z" fill="#000000" fill-rule="nonzero" group-id="1,3,16" id="Stroke-16" node-id="28" stroke="none" target-height="13.474426" target-width="22.948425" target-x="279.70538" target-y="304.59955"/></g><g node-id="178"><path d="M 263.49 335.15 C 263.49 339.15 248.20 339.15 248.20 335.15 C 248.20 330.75 251.62 327.50 255.85 327.50 C 260.07 327.50 263.49 330.75 263.49 335.15" fill="#e8b39f" fill-rule="evenodd" group-id="1,3,17" id="Fill-17" node-id="29" stroke="none" target-height="11.645599" target-width="15.291595" target-x="248.19952" target-y="327.5006"/></g><g node-id="179"><path d="M 162.18 320.35 C 146.99 246.68 191.09 190.43 265.33 190.43 C 308.43 190.43 376.38 233.70 349.42 320.35 C 320.89 315.62 282.16 285.58 257.71 228.19 C 232.71 287.31 188.21 312.76 162.18 320.35 Z" fill="#ffbbba" fill-rule="evenodd" group-id="1,3,18" id="Fill-18" node-id="30" stroke="none" target-height="129.92542" target-width="229.38765" target-x="146.99379" target-y="190.4292"/></g><g node-id="180"><path d="M 257.71 217.19 C 232.71 276.31 186.90 307.16 160.87 314.75 C 145.68 241.07 191.09 182.43 265.33 182.43 C 308.43 182.43 378.42 228.09 351.46 314.75 C 322.92 310.01 282.16 274.58 257.71 217.19" fill="#beb6a9" fill-rule="evenodd" group-id="1,3,19" id="Fill-18" node-id="31" stroke="none" target-height="132.31598" target-width="232.73679" target-x="145.67996" target-y="182.4292"/></g><g node-id="181"><path d="M 331.83 511.35 L 176.16 511.35 C 176.16 470.70 209.11 437.75 249.76 437.75 L 258.23 437.75 C 298.88 437.75 331.83 470.70 331.83 511.35" fill="#ffbbba" fill-rule="evenodd" group-id="1,3,20" id="Fill-19" node-id="32" stroke="none" target-height="73.60364" target-width="155.67479" target-x="176.15852" target-y="437.75003"/></g><path d="M 290.32 444.75 C 284.69 458.03 271.56 467.35 256.22 467.35 C 240.24 467.35 226.80 457.23 221.61 443.04 C 194.69 454.16 175.92 480.75 175.92 511.69 L 175.92 511.95 L 332.32 511.95 L 332.32 511.69 C 332.32 482.23 315.20 456.71 290.32 444.75" fill="#fffffd" fill-rule="evenodd" group-id="1,3,21" id="Fill-20" node-id="33" stroke="none" target-height="68.9028" target-width="156.40001" target-x="175.9236" target-y="443.0434"/></g><g node-id="165"><path d="M 230.69 276.27 C 231.79 276.19 232.75 277.02 232.83 278.12 C 232.91 279.22 232.09 280.18 230.98 280.26 C 225.00 280.71 219.18 282.05 214.10 284.15 C 213.08 284.57 211.91 284.09 211.49 283.07 C 211.07 282.05 211.55 280.88 212.57 280.45 C 218.05 278.19 224.29 276.75 230.69 276.27 Z" fill="#5c4432" fill-rule="nonzero" group-id="1,4" id="Stroke-24" node-id="35" stroke="none" target-height="8.3811035" target-width="21.847122" target-x="211.06508" target-y="276.19214"/><path d="M 281.70 276.27 C 288.10 276.75 294.34 278.19 299.81 280.45 C 300.83 280.88 301.32 282.05 300.90 283.07 C 300.47 284.09 299.31 284.57 298.28 284.15 C 293.21 282.05 287.39 280.71 281.40 280.26 C 280.30 280.18 279.47 279.22 279.55 278.12 C 279.63 277.07 280.51 276.27 281.55 276.27 L 281.70 276.27 Z" fill="#5c4432" fill-rule="nonzero" group-id="1,4" id="Stroke-26" node-id="36" stroke="none" target-height="8.305389" target-width="21.847107" target-x="279.4726" target-y="276.26785"/></g></g><g node-id="163"><path d="M 239.22 357.65 C 240.61 374.97 246.20 383.62 256.00 383.62 C 265.79 383.62 271.56 374.97 273.32 357.65 L 239.22 357.65 Z" fill="#ffbbba" fill-rule="evenodd" group-id="2" id="路径-8" node-id="38" stroke="none" target-height="25.969727" target-width="34.098633" target-x="239.22" target-y="357.65228"/><path d="M 239.00 357.65 C 240.90 367.51 246.63 372.44 256.20 372.44 C 265.77 372.44 271.50 367.51 273.40 357.65 L 239.00 357.65 Z" fill="#f7715f" fill-rule="evenodd" group-id="2" id="路径-6备份" node-id="39" stroke="none" target-height="14.790863" target-width="34.39801" target-x="239" target-y="357.65228"/><path d="M 239.00 357.65 L 273.40 357.65 C 269.47 362.47 263.74 364.88 256.20 364.88 C 248.66 364.88 242.93 362.47 239.00 357.65 Z" fill="#fffeff" fill-rule="evenodd" group-id="2" id="路径-5备份" node-id="40" stroke="none" target-height="7.2305603" target-width="34.39801" target-x="239" target-y="357.65228"/><path d="M 239.22 357.65 C 242.86 353.88 246.59 352.00 250.41 352.00 C 254.23 352.00 256.18 353.88 256.27 357.65 L 239.22 357.65 Z" fill="#fc6d63" fill-rule="evenodd" group-id="2" id="路径-7备份-2" node-id="41" stroke="none" target-height="5.6522827" target-width="17.049988" target-x="239.22" target-y="352"/><g node-id="166"><path d="M 273.32 357.65 C 269.68 353.88 265.95 352.00 262.13 352.00 C 258.31 352.00 256.36 353.88 256.27 357.65 L 273.32 357.65 Z" fill="#fc6d63" fill-rule="evenodd" group-id="2,5" id="路径-7备份-3" node-id="42" stroke="none" target-height="5.6522827" target-width="17.049988" target-x="256.26865" target-y="352"/></g></g></g></svg>